<svg width="201" height="204" xmlns="http://www.w3.org/2000/svg" xmlns:xlink="http://www.w3.org/1999/xlink" xml:space="preserve" overflow="hidden"><defs><clipPath id="clip0"><rect x="1134" y="151" width="201" height="204"/></clipPath></defs><g clip-path="url(#clip0)" transform="translate(-1134 -151)"><path d="M191.88 190.102C212.932 168.865 215.387 143.577 220.024 95.8217 223.794 56.9889 216.212 50.7351 213.927 49.1386 195.098 35.9921 150.38 69.8183 144.035 61.4963 140.372 56.6943 154.903 44.965 151.539 39.07 145.512 28.509 80.5129 34.0176 51.1574 74.3117 22.7947 113.243 28.9117 182.991 76.766 210.111 116.012 232.352 166.07 216.139 191.88 190.102" fill="#CADDFF" transform="matrix(1 0 0 1.0007 1111.21 122.475)"/><path d="M216.42 76.9617 153.445 76.9617C150.872 76.9617 148.476 79.0491 148.094 81.6238L129.931 204.098C129.549 206.671 131.326 208.759 133.9 208.759L196.876 208.759C199.449 208.759 201.847 206.671 202.227 204.098L220.39 81.6238C220.772 79.0491 218.995 76.9617 216.42 76.9617" transform="matrix(1 0 0 1.0007 1111.21 122.475)"/><path d="M153.447 77.3007C151.035 77.3007 148.786 79.2617 148.426 81.6728L130.266 204.147C130.094 205.303 130.383 206.384 131.079 207.191 131.763 207.984 132.766 208.421 133.9 208.421L196.876 208.421C199.286 208.421 201.535 206.459 201.895 204.048L220.056 81.574C220.227 80.418 219.939 79.3374 219.242 78.53 218.557 77.7369 217.556 77.3007 216.42 77.3007ZM196.876 209.097 133.9 209.097C132.565 209.097 131.381 208.576 130.567 207.632 129.741 206.675 129.396 205.401 129.597 204.048L147.76 81.574C148.164 78.8442 150.714 76.624 153.447 76.624L216.42 76.624C217.756 76.624 218.939 77.1448 219.754 78.0894 220.579 79.0463 220.925 80.3203 220.725 81.6728L202.561 204.147C202.157 206.877 199.607 209.097 196.876 209.097" transform="matrix(1 0 0 1.0007 1111.21 122.475)"/><path d="M213.921 76.9629 150.946 76.9629C148.373 76.9629 145.977 79.0491 145.595 81.6242L127.432 204.098C127.05 206.671 128.827 208.759 131.402 208.759L194.376 208.759C196.951 208.759 199.347 206.671 199.729 204.098L217.892 81.6242C218.273 79.0491 216.496 76.9629 213.921 76.9629" fill="#FFFFFF" transform="matrix(1 0 0 1.0007 1111.21 122.475)"/><path d="M150.946 77.3003C148.537 77.3003 146.286 79.2621 145.928 81.674L127.767 204.147C127.595 205.303 127.884 206.384 128.579 207.191 129.264 207.984 130.265 208.421 131.402 208.421L194.375 208.421C196.786 208.421 199.037 206.459 199.395 204.048L217.557 81.5747C217.728 80.4184 217.439 79.337 216.743 78.5304 216.058 77.7369 215.056 77.3003 213.921 77.3003ZM194.375 209.097 131.402 209.097C130.066 209.097 128.882 208.576 128.068 207.632 127.242 206.675 126.897 205.401 127.098 204.048L145.26 81.5747C145.665 78.845 148.216 76.6248 150.946 76.6248L213.921 76.6248C215.257 76.6248 216.44 77.1448 217.255 78.0894 218.081 79.0475 218.426 80.3207 218.225 81.674L200.062 204.147C199.659 206.877 197.107 209.097 194.375 209.097" transform="matrix(1 0 0 1.0007 1111.21 122.475)"/><path d="M164.168 76.9629 163.781 79.5771C163.369 82.3535 165.286 84.6056 168.063 84.6056L194.537 84.6056C197.315 84.6056 199.9 82.3535 200.313 79.5771L200.7 76.9629 164.168 76.9629" transform="matrix(1 0 0 1.0007 1111.21 122.475)"/><path d="M181.651 82.245C180.641 82.245 179.944 81.426 180.094 80.4172 180.243 79.4076 181.183 78.5882 182.192 78.5882 183.202 78.5882 183.899 79.4076 183.75 80.4172 183.599 81.426 182.661 82.245 181.651 82.245" fill="#CADDFF" transform="matrix(1 0 0 1.0007 1111.21 122.475)"/><path d="M209.223 96.661 149.804 96.661 150.602 91.2753 210.022 91.2753 209.223 96.661" fill="#CADDFF" transform="matrix(1 0 0 1.0007 1111.21 122.475)"/><path d="M203.325 136.428 143.906 136.428 149.219 100.596 208.639 100.596 203.325 136.428" fill="#CADDFF" transform="matrix(1 0 0 1.0007 1111.21 122.475)"/><path d="M207.146 93.9687C207.038 94.6845 206.373 95.2658 205.656 95.2658 204.94 95.2658 204.446 94.6845 204.552 93.9687 204.658 93.253 205.324 92.6716 206.041 92.6716 206.757 92.6716 207.252 93.253 207.146 93.9687" fill="#FFFFFF" transform="matrix(1 0 0 1.0007 1111.21 122.475)"/><path d="M199.647 161.232 140.228 161.232 143.542 138.894 202.96 138.894 199.647 161.232" fill="#CADDFF" transform="matrix(1 0 0 1.0007 1111.21 122.475)"/><path d="M195.85 186.834 136.431 186.834 139.743 164.495 199.164 164.495 195.85 186.834" fill="#CADDFF" transform="matrix(1 0 0 1.0007 1111.21 122.475)"/><path d="M193.176 204.873 133.756 204.873 135.948 190.096 195.367 190.096 193.176 204.873" fill="#CADDFF" transform="matrix(1 0 0 1.0007 1111.21 122.475)"/><path d="M193.176 204.873 133.756 204.873 135.948 190.096 195.367 190.096 193.176 204.873" fill="#CADDFF" transform="matrix(1 0 0 1.0007 1111.21 122.475)"/><path d="M178.733 150.064C178.149 154.007 174.478 157.204 170.535 157.204 166.591 157.204 163.869 154.007 164.453 150.064 165.038 146.12 168.709 142.924 172.652 142.924 176.595 142.924 179.319 146.12 178.733 150.064" fill="#FFFFFF" transform="matrix(1 0 0 1.0007 1111.21 122.475)"/><path d="M174.938 175.664C174.354 179.607 170.682 182.805 166.738 182.805 162.795 182.805 160.073 179.607 160.657 175.664 161.242 171.721 164.913 168.524 168.856 168.524 172.8 168.524 175.522 171.721 174.938 175.664" fill="#FFFFFF" transform="matrix(1 0 0 1.0007 1111.21 122.475)"/><path d="M169.419 205.143C170.309 204.027 170.927 202.696 171.14 201.265 171.725 197.322 169.003 194.125 165.059 194.125 161.116 194.125 157.444 197.322 156.861 201.265 156.648 202.696 156.872 204.027 157.431 205.143L169.419 205.143" fill="#FFFFFF" transform="matrix(1 0 0 1.0007 1111.21 122.475)"/><path d="M67.0694 43.0335 51.1207 57.8394C50.6829 58.2453 50.6127 58.9132 50.956 59.4025L64.6583 78.8542C65.0745 79.4479 65.9183 79.5364 66.449 79.0436L82.3977 64.2372C82.8356 63.8301 82.9057 63.1638 82.5624 62.6745L68.8602 43.2213C68.4439 42.6287 67.6002 42.5402 67.0694 43.0335" fill="#FFFFFF" transform="matrix(1 0 0 1.0007 1111.21 122.475)"/><path d="M67.2987 43.2819 51.3504 58.0874C51.0377 58.3773 50.9871 58.8594 51.2319 59.2079L64.9342 78.6612C65.0765 78.8637 65.2998 78.9953 65.5459 79.0204 65.7923 79.0463 66.0375 78.9654 66.2189 78.7971L82.1677 63.99C82.4799 63.7001 82.5309 63.218 82.2857 62.8695L68.5838 43.4175C68.4411 43.2137 68.2182 43.0833 67.9718 43.057 67.7262 43.0311 67.4805 43.1132 67.2987 43.2819ZM65.6356 79.7007C65.5825 79.7007 65.5287 79.6979 65.4749 79.6927 65.0347 79.6456 64.6363 79.412 64.3815 79.0491L50.6793 59.5971C50.2411 58.9726 50.332 58.111 50.8906 57.5926L66.8394 42.7866C67.1639 42.4852 67.6021 42.3389 68.0428 42.3847 68.483 42.4318 68.8817 42.6666 69.1361 43.0283L82.8383 62.4804C83.2766 63.1044 83.1861 63.9664 82.6274 64.486L66.6787 79.292C66.3936 79.5555 66.0208 79.7007 65.6356 79.7007" transform="matrix(1 0 0 1.0007 1111.21 122.475)"/><path d="M78.5882 60.5205 63.8078 74.2431 53.1291 59.0436 67.9096 45.3222 78.5882 60.5205" fill="#99B9FF" transform="matrix(1 0 0 1.0007 1111.21 122.475)"/><path d="M78.5882 60.5205 63.8078 74.2431 53.1291 59.0436 67.9096 45.3222 78.5882 60.5205" fill="#99B9FF" transform="matrix(1 0 0 1.0007 1111.21 122.475)"/><path d="M70.0053 54.0335C69.1704 53.941 68.42 54.547 68.3354 55.3832L67.7222 61.4317C67.6687 61.96 67.1938 62.344 66.6655 62.285L64.5139 62.0465C63.679 61.954 62.9289 62.5613 62.844 63.3963L62.1566 70.182 63.9649 72.755 77.2907 60.3834 73.0677 54.3732 70.0053 54.0335" fill="#CADDFF" transform="matrix(1 0 0 1.0007 1111.21 122.475)"/><path d="M63.2491 55.6835C63.9645 56.7014 63.8117 58.2071 62.9082 59.0468 62.0047 59.8854 60.692 59.7398 59.9767 58.7218 59.2609 57.7035 59.4137 56.1978 60.3172 55.3585 61.2211 54.5199 62.5334 54.6651 63.2491 55.6835" fill="#CADDFF" transform="matrix(1 0 0 1.0007 1111.21 122.475)"/><path d="M64.5047 54.5431 48.556 69.3498C48.1178 69.7557 48.0476 70.4236 48.3909 70.9121L62.0936 90.3649C62.5099 90.9587 63.3536 91.0472 63.8839 90.5535L79.8331 75.7484C80.2709 75.3409 80.341 74.6746 79.9977 74.1845L66.2951 54.7321C65.8788 54.1395 65.0355 54.0506 64.5047 54.5431" fill="#FFFFFF" transform="matrix(1 0 0 1.0007 1111.21 122.475)"/><path d="M64.734 54.7919 48.7853 69.5986C48.4727 69.8889 48.422 70.3706 48.6672 70.7191L62.3691 90.1716C62.5118 90.3741 62.7347 90.5061 62.9808 90.5324 63.2292 90.5567 63.4724 90.4754 63.6538 90.3075L79.6026 75.502C79.9152 75.2117 79.9658 74.73 79.7206 74.3803L66.0188 54.9278C65.876 54.7253 65.6535 54.5941 65.4071 54.5682 65.1615 54.5423 64.9154 54.624 64.734 54.7919ZM63.0709 91.2115C63.0175 91.2115 62.964 91.2091 62.9102 91.2043 62.4696 91.1572 62.0712 90.9224 61.8164 90.5607L48.1146 71.1083C47.676 70.4842 47.7669 69.6222 48.3255 69.1034L64.2743 54.2966C64.5992 53.9952 65.0375 53.8493 65.4781 53.8963 65.9183 53.9422 66.3166 54.1766 66.5714 54.5399L80.2733 73.9911C80.7119 74.6164 80.621 75.4772 80.0619 75.996L64.1136 90.8028C63.8285 91.0671 63.4557 91.2115 63.0709 91.2115" transform="matrix(1 0 0 1.0007 1111.21 122.475)"/><path d="M76.0231 72.0321 61.2427 85.7531 50.5644 70.5548 65.3449 56.8326 76.0231 72.0321" fill="#99B9FF" transform="matrix(1 0 0 1.0007 1111.21 122.475)"/><path d="M76.0231 72.0321 61.2427 85.7531 50.5644 70.5548 65.3449 56.8326 76.0231 72.0321" fill="#99B9FF" transform="matrix(1 0 0 1.0007 1111.21 122.475)"/><path d="M67.4399 65.5451C66.6049 65.4533 65.8545 66.0598 65.7699 66.8956L65.1571 72.9436C65.1032 73.4724 64.6288 73.8564 64.1 73.797L61.9488 73.5597C61.1135 73.4664 60.3634 74.0729 60.2789 74.9086L59.5911 81.694 61.3994 84.2666 74.7252 71.895 70.5026 65.8852 67.4399 65.5451" fill="#CADDFF" transform="matrix(1 0 0 1.0007 1111.21 122.475)"/><path d="M60.6836 67.1962C61.399 68.2138 61.2467 69.7202 60.3427 70.5592 59.4392 71.3981 58.1265 71.2522 57.4112 70.2342 56.6958 69.2154 56.8482 67.7102 57.7521 66.8713 58.6556 66.0323 59.9683 66.1775 60.6836 67.1962" fill="#CADDFF" transform="matrix(1 0 0 1.0007 1111.21 122.475)"/><path d="M59.0121 71.4408C58.9352 71.4408 58.8582 71.4364 58.7812 71.428 58.1249 71.3599 57.5404 71.0034 57.1353 70.4264 56.3274 69.2772 56.5013 67.5698 57.5224 66.6228 57.8414 66.3258 58.223 66.1236 58.6253 66.0367 58.808 65.9972 58.9878 66.1133 59.0273 66.2955 59.0667 66.4777 58.9507 66.6575 58.7681 66.697 58.4842 66.7588 58.2122 66.904 57.9822 67.1173 57.1991 67.8438 57.0671 69.1544 57.6883 70.0388 57.9794 70.4531 58.3929 70.7087 58.8518 70.7574 59.3036 70.8036 59.7518 70.6457 60.1134 70.3104 60.4902 69.9599 60.7287 69.4631 60.7849 68.9096 60.8037 68.7238 60.9687 68.589 61.1549 68.6078 61.3404 68.6261 61.4759 68.7924 61.4568 68.9778 61.3842 69.6939 61.07 70.3443 60.5732 70.8048 60.1266 71.2191 59.5795 71.4408 59.0121 71.4408" transform="matrix(1 0 0 1.0007 1111.21 122.475)"/><path d="M59.7434 80.5372C59.7318 80.5372 59.7203 80.536 59.7087 80.5348 59.5229 80.5161 59.3877 80.3506 59.4069 80.1652L59.9388 74.9154C59.9898 74.4094 60.2362 73.9557 60.6314 73.6351 61.0269 73.3157 61.5234 73.1713 62.0282 73.2271L64.159 73.4636C64.3193 73.4811 64.4752 73.4345 64.6004 73.3344 64.7253 73.2331 64.803 73.0896 64.819 72.9297L65.4298 66.9024C65.4813 66.3964 65.7273 65.9418 66.1224 65.622 66.518 65.3026 67.0144 65.1571 67.5192 65.2129L68.0854 65.2759C68.2708 65.297 68.4044 65.4637 68.3841 65.6491 68.3633 65.8345 68.1967 65.9685 68.0113 65.9474L67.4446 65.8844C67.1185 65.8485 66.8011 65.943 66.5471 66.1479 66.2931 66.3533 66.1352 66.6448 66.1021 66.9697L65.4912 72.9987C65.4569 73.338 65.2915 73.6446 65.0251 73.8592 64.7587 74.0749 64.4242 74.1726 64.0849 74.1355L61.9536 73.8986C61.6294 73.8623 61.3101 73.9557 61.0561 74.161 60.8021 74.3663 60.6438 74.6586 60.6111 74.984L60.0787 80.2326C60.0612 80.4076 59.9145 80.5372 59.7434 80.5372" transform="matrix(1 0 0 1.0007 1111.21 122.475)"/><path d="M191.192 50.5716 126.453 50.5716C124.8 50.5716 123.262 51.911 123.017 53.563L104.658 177.362C104.413 179.015 105.554 180.354 107.206 180.354L171.944 180.354C173.596 180.354 175.136 179.015 175.38 177.362L193.738 53.563C193.983 51.911 192.844 50.5716 191.192 50.5716" fill="#FFFFFF" transform="matrix(1 0 0 1.0007 1111.21 122.475)"/><path d="M126.452 50.909C124.963 50.909 123.572 52.1227 123.351 53.6124L104.992 177.412C104.888 178.119 105.064 178.778 105.486 179.269 105.903 179.751 106.513 180.016 107.206 180.016L171.944 180.016C173.433 180.016 174.825 178.804 175.046 177.312L193.405 53.5143C193.51 52.8077 193.334 52.1478 192.91 51.6574 192.495 51.1757 191.884 50.909 191.19 50.909ZM171.944 180.692 107.206 180.692C106.314 180.692 105.521 180.343 104.975 179.71 104.421 179.068 104.19 178.217 104.324 177.312L122.683 53.5143C122.951 51.7052 124.643 50.2339 126.452 50.2339L191.19 50.2339C192.084 50.2339 192.876 50.582 193.422 51.216 193.976 51.8572 194.207 52.7097 194.073 53.6124L175.714 177.412C175.445 179.22 173.755 180.692 171.944 180.692" transform="matrix(1 0 0 1.0007 1111.21 122.475)"/><path d="M187.63 58.8961 127.579 58.8961C127.391 58.8961 127.241 58.745 127.241 58.5588 127.241 58.3713 127.391 58.2202 127.579 58.2202L187.63 58.2202C187.815 58.2202 187.967 58.3713 187.967 58.5588 187.967 58.745 187.815 58.8961 187.63 58.8961" transform="matrix(1 0 0 1.0007 1111.21 122.475)"/><path d="M131.48 55.5108C131.407 56.0052 130.947 56.4064 130.452 56.4064 129.957 56.4064 129.616 56.0052 129.689 55.5108 129.762 55.016 130.223 54.6148 130.718 54.6148 131.213 54.6148 131.555 55.016 131.48 55.5108" fill="#CADDFF" transform="matrix(1 0 0 1.0007 1111.21 122.475)"/><path d="M135.065 55.5108C134.991 56.0052 134.531 56.4064 134.035 56.4064 133.542 56.4064 133.2 56.0052 133.274 55.5108 133.347 55.016 133.808 54.6148 134.302 54.6148 134.796 54.6148 135.138 55.016 135.065 55.5108" fill="#CADDFF" transform="matrix(1 0 0 1.0007 1111.21 122.475)"/><path d="M138.649 55.5108C138.575 56.0052 138.115 56.4064 137.62 56.4064 137.125 56.4064 136.784 56.0052 136.857 55.5108 136.931 55.016 137.391 54.6148 137.886 54.6148 138.381 54.6148 138.722 55.016 138.649 55.5108" fill="#CADDFF" transform="matrix(1 0 0 1.0007 1111.21 122.475)"/><path d="M188.126 55.8501 183.078 55.8501C182.892 55.8501 182.74 55.6978 182.74 55.5112 182.74 55.325 182.892 55.1739 183.078 55.1739L188.126 55.1739C188.312 55.1739 188.464 55.325 188.464 55.5112 188.464 55.6978 188.312 55.8501 188.126 55.8501" transform="matrix(1 0 0 1.0007 1111.21 122.475)"/><path d="M180.808 55.8501 150.744 55.8501C150.559 55.8501 150.408 55.6978 150.408 55.5112 150.408 55.325 150.559 55.1739 150.744 55.1739L180.808 55.1739C180.995 55.1739 181.146 55.325 181.146 55.5112 181.146 55.6978 180.995 55.8501 180.808 55.8501" transform="matrix(1 0 0 1.0007 1111.21 122.475)"/><path d="M145.248 55.8501 140.799 55.8501C140.612 55.8501 140.461 55.6978 140.461 55.5112 140.461 55.325 140.612 55.1739 140.799 55.1739L145.248 55.1739C145.436 55.1739 145.587 55.325 145.587 55.5112 145.587 55.6978 145.436 55.8501 145.248 55.8501" transform="matrix(1 0 0 1.0007 1111.21 122.475)"/><path d="M178.501 40.6833 107.96 40.6833C106.16 40.6833 104.484 42.1427 104.216 43.943L84.212 178.837C83.9452 180.638 85.1881 182.098 86.9884 182.098L157.529 182.098C159.329 182.098 161.006 180.638 161.271 178.837L181.277 43.943C181.543 42.1427 180.301 40.6833 178.501 40.6833" fill="#FFFFFF" transform="matrix(1 0 0 1.0007 1111.21 122.475)"/><path d="M107.96 41.0218C106.323 41.0218 104.794 42.3544 104.551 43.9928L84.5465 178.887C84.4309 179.666 84.6247 180.393 85.0916 180.935 85.5506 181.467 86.2244 181.76 86.9884 181.76L157.529 181.76C159.166 181.76 160.695 180.426 160.939 178.788L180.944 43.8939C181.058 43.1148 180.864 42.3887 180.398 41.8468 179.939 41.3145 179.266 41.0218 178.501 41.0218ZM157.529 182.435 86.9884 182.435C86.0247 182.435 85.1694 182.059 84.58 181.376 83.9827 180.683 83.7331 179.764 83.8779 178.788L103.883 43.8939C104.172 41.9377 106.001 40.3456 107.96 40.3456L178.501 40.3456C179.465 40.3456 180.32 40.7212 180.909 41.4054 181.506 42.0972 181.755 43.0159 181.61 43.9928L161.607 178.887C161.316 180.843 159.486 182.435 157.529 182.435" transform="matrix(1 0 0 1.0007 1111.21 122.475)"/><path d="M167.441 98.2859 101.911 98.2859 108.49 53.9158 174.02 53.9158 167.441 98.2859" fill="#FFFFFF" transform="matrix(1 0 0 1.0007 1111.21 122.475)"/><path d="M114.314 54.2536 111.611 54.2536C111.425 54.2536 111.274 54.1029 111.274 53.9158 111.274 53.7292 111.425 53.5781 111.611 53.5781L114.314 53.5781C114.501 53.5781 114.652 53.7292 114.652 53.9158 114.652 54.1029 114.501 54.2536 114.314 54.2536ZM119.719 54.2536 117.017 54.2536C116.83 54.2536 116.679 54.1029 116.679 53.9158 116.679 53.7292 116.83 53.5781 117.017 53.5781L119.719 53.5781C119.905 53.5781 120.057 53.7292 120.057 53.9158 120.057 54.1029 119.905 54.2536 119.719 54.2536ZM125.123 54.2536 122.422 54.2536C122.235 54.2536 122.084 54.1029 122.084 53.9158 122.084 53.7292 122.235 53.5781 122.422 53.5781L125.123 53.5781C125.31 53.5781 125.461 53.7292 125.461 53.9158 125.461 54.1029 125.31 54.2536 125.123 54.2536ZM130.529 54.2536 127.826 54.2536C127.639 54.2536 127.488 54.1029 127.488 53.9158 127.488 53.7292 127.639 53.5781 127.826 53.5781L130.529 53.5781C130.715 53.5781 130.866 53.7292 130.866 53.9158 130.866 54.1029 130.715 54.2536 130.529 54.2536ZM135.934 54.2536 133.231 54.2536C133.045 54.2536 132.894 54.1029 132.894 53.9158 132.894 53.7292 133.045 53.5781 133.231 53.5781L135.934 53.5781C136.121 53.5781 136.272 53.7292 136.272 53.9158 136.272 54.1029 136.121 54.2536 135.934 54.2536ZM141.338 54.2536 138.637 54.2536C138.45 54.2536 138.299 54.1029 138.299 53.9158 138.299 53.7292 138.45 53.5781 138.637 53.5781L141.338 53.5781C141.525 53.5781 141.677 53.7292 141.677 53.9158 141.677 54.1029 141.525 54.2536 141.338 54.2536ZM146.743 54.2536 144.042 54.2536C143.855 54.2536 143.704 54.1029 143.704 53.9158 143.704 53.7292 143.855 53.5781 144.042 53.5781L146.743 53.5781C146.93 53.5781 147.081 53.7292 147.081 53.9158 147.081 54.1029 146.93 54.2536 146.743 54.2536ZM152.149 54.2536 149.447 54.2536C149.26 54.2536 149.108 54.1029 149.108 53.9158 149.108 53.7292 149.26 53.5781 149.447 53.5781L152.149 53.5781C152.335 53.5781 152.487 53.7292 152.487 53.9158 152.487 54.1029 152.335 54.2536 152.149 54.2536ZM157.555 54.2536 154.851 54.2536C154.664 54.2536 154.513 54.1029 154.513 53.9158 154.513 53.7292 154.664 53.5781 154.851 53.5781L157.555 53.5781C157.741 53.5781 157.893 53.7292 157.893 53.9158 157.893 54.1029 157.741 54.2536 157.555 54.2536ZM162.959 54.2536 160.256 54.2536C160.07 54.2536 159.919 54.1029 159.919 53.9158 159.919 53.7292 160.07 53.5781 160.256 53.5781L162.959 53.5781C163.146 53.5781 163.298 53.7292 163.298 53.9158 163.298 54.1029 163.146 54.2536 162.959 54.2536ZM168.364 54.2536 165.662 54.2536C165.476 54.2536 165.324 54.1029 165.324 53.9158 165.324 53.7292 165.476 53.5781 165.662 53.5781L168.364 53.5781C168.55 53.5781 168.702 53.7292 168.702 53.9158 168.702 54.1029 168.55 54.2536 168.364 54.2536ZM173.77 54.2536 171.067 54.2536C170.88 54.2536 170.728 54.1029 170.728 53.9158 170.728 53.7292 170.88 53.5781 171.067 53.5781L173.77 53.5781C173.956 53.5781 174.107 53.7292 174.107 53.9158 174.107 54.1029 173.956 54.2536 173.77 54.2536ZM108.156 56.5132C108.139 56.5132 108.123 56.512 108.106 56.5096 107.922 56.4825 107.794 56.3107 107.822 56.126L108.156 53.8664C108.181 53.7005 108.323 53.5781 108.49 53.5781L108.909 53.5781C109.096 53.5781 109.246 53.7292 109.246 53.9158 109.246 54.1029 109.096 54.2536 108.909 54.2536L108.782 54.2536 108.49 56.2253C108.464 56.3936 108.321 56.5132 108.156 56.5132ZM173.265 59.3522C173.249 59.3522 173.233 59.3507 173.215 59.3483 173.03 59.3199 172.902 59.1493 172.931 58.9639L173.328 56.2907C173.354 56.1065 173.526 55.9789 173.71 56.0064 173.894 56.0335 174.023 56.2054 173.994 56.3896L173.599 59.064C173.574 59.231 173.429 59.3522 173.265 59.3522ZM107.363 61.8603C107.347 61.8603 107.33 61.8591 107.313 61.8567 107.129 61.8296 107.001 61.6578 107.029 61.4719L107.425 58.7992C107.452 58.615 107.624 58.4886 107.808 58.5149 107.993 58.542 108.121 58.7139 108.093 58.8981L107.697 61.5724C107.671 61.7391 107.527 61.8603 107.363 61.8603ZM172.472 64.6981C172.456 64.6981 172.44 64.6965 172.423 64.6941 172.237 64.667 172.11 64.4952 172.137 64.311L172.534 61.6378C172.562 61.4536 172.734 61.326 172.919 61.3535 173.102 61.3806 173.229 61.5525 173.202 61.7367L172.806 64.4098C172.781 64.5781 172.636 64.6981 172.472 64.6981ZM106.57 67.2062C106.554 67.2062 106.537 67.205 106.52 67.2026 106.335 67.1755 106.208 67.0036 106.236 66.8194L106.632 64.1463C106.66 63.9621 106.831 63.8357 107.016 63.862 107.2 63.8891 107.328 64.061 107.3 64.2452L106.904 66.9183C106.879 67.0866 106.734 67.2062 106.57 67.2062ZM171.679 70.0452C171.663 70.0452 171.646 70.044 171.628 70.0412 171.444 70.0141 171.318 69.8423 171.345 69.658L171.741 66.9837C171.768 66.7995 171.942 66.6731 172.124 66.6994 172.31 66.7265 172.437 66.8984 172.41 67.0826L172.013 69.7569C171.988 69.924 171.844 70.0452 171.679 70.0452ZM105.777 72.5537C105.761 72.5537 105.744 72.5521 105.727 72.5497 105.543 72.5226 105.416 72.3507 105.442 72.1665L105.839 69.4922C105.867 69.308 106.038 69.1815 106.223 69.2079 106.408 69.235 106.535 69.4068 106.508 69.5923L106.111 72.2654C106.086 72.4325 105.942 72.5537 105.777 72.5537ZM170.886 75.3911C170.869 75.3911 170.853 75.3895 170.837 75.3871 170.653 75.36 170.524 75.1881 170.552 75.0039L170.948 72.3308C170.975 72.1466 171.149 72.019 171.332 72.0465 171.517 72.0736 171.645 72.2455 171.616 72.4297L171.22 75.1028C171.196 75.2711 171.051 75.3911 170.886 75.3911ZM104.985 77.8992C104.968 77.8992 104.951 77.898 104.935 77.8956 104.75 77.8685 104.623 77.6966 104.65 77.5124L105.046 74.8393C105.074 74.655 105.245 74.5286 105.43 74.555 105.615 74.5821 105.742 74.7539 105.715 74.9381L105.319 77.6113C105.293 77.7795 105.149 77.8992 104.985 77.8992ZM170.094 80.7382C170.077 80.7382 170.06 80.737 170.044 80.7342 169.858 80.7071 169.731 80.5352 169.758 80.351L170.155 77.6767C170.182 77.4925 170.354 77.3665 170.539 77.3924 170.723 77.4195 170.85 77.5913 170.823 77.7768L170.427 80.4499C170.401 80.617 170.258 80.7382 170.094 80.7382ZM104.192 83.2467C104.175 83.2467 104.158 83.2451 104.142 83.2427 103.957 83.2156 103.83 83.0437 103.857 82.8595L104.253 80.1851C104.281 80.0009 104.453 79.8745 104.637 79.9008 104.822 79.928 104.949 80.0998 104.922 80.2852L104.526 82.9584C104.5 83.1254 104.356 83.2467 104.192 83.2467ZM169.3 86.0841C169.284 86.0841 169.269 86.0829 169.25 86.0813 169.067 86.053 168.939 85.8823 168.967 85.6969L169.362 83.0238C169.391 82.8395 169.563 82.712 169.747 82.7395 169.931 82.7666 170.058 82.9384 170.03 83.1227L169.635 85.7958C169.61 85.9641 169.466 86.0841 169.3 86.0841ZM103.399 88.5925C103.382 88.5925 103.366 88.591 103.349 88.5898 103.164 88.5614 103.036 88.3908 103.064 88.2054L103.461 85.5322C103.487 85.348 103.66 85.222 103.845 85.2479 104.029 85.275 104.156 85.4469 104.129 85.6311L103.732 88.3055C103.708 88.4725 103.563 88.5925 103.399 88.5925ZM168.508 91.4312C168.49 91.4312 168.474 91.43 168.458 91.4272 168.274 91.4001 168.146 91.2282 168.174 91.044L168.57 88.3708C168.597 88.1854 168.769 88.0594 168.953 88.0854 169.139 88.1137 169.266 88.2843 169.239 88.4697L168.841 91.1429C168.817 91.3111 168.672 91.4312 168.508 91.4312ZM102.605 93.9396C102.589 93.9396 102.573 93.9384 102.556 93.9356 102.372 93.9085 102.244 93.7367 102.27 93.5525L102.668 90.8793C102.696 90.6939 102.867 90.5675 103.052 90.595 103.236 90.6221 103.363 90.794 103.336 90.9782L102.939 93.6513C102.915 93.8196 102.771 93.9396 102.605 93.9396ZM167.715 96.7771C167.699 96.7771 167.682 96.7759 167.665 96.7743 167.48 96.746 167.352 96.5753 167.381 96.3899L167.776 93.7167C167.804 93.5325 167.977 93.4053 168.16 93.4324 168.344 93.4595 168.473 93.6314 168.445 93.8156L168.049 96.4888C168.023 96.657 167.879 96.7771 167.715 96.7771ZM102.58 98.6236 101.911 98.6236C101.813 98.6236 101.719 98.5817 101.655 98.506 101.591 98.4318 101.562 98.3341 101.577 98.2364L101.875 96.2252C101.902 96.041 102.075 95.915 102.259 95.9409 102.443 95.968 102.571 96.1399 102.543 96.3241L102.302 97.9482 102.58 97.9482C102.767 97.9482 102.918 98.0993 102.918 98.2859 102.918 98.4729 102.767 98.6236 102.58 98.6236ZM107.985 98.6236 105.283 98.6236C105.096 98.6236 104.945 98.4729 104.945 98.2859 104.945 98.0993 105.096 97.9482 105.283 97.9482L107.985 97.9482C108.172 97.9482 108.323 98.0993 108.323 98.2859 108.323 98.4729 108.172 98.6236 107.985 98.6236ZM113.39 98.6236 110.688 98.6236C110.501 98.6236 110.35 98.4729 110.35 98.2859 110.35 98.0993 110.501 97.9482 110.688 97.9482L113.39 97.9482C113.577 97.9482 113.728 98.0993 113.728 98.2859 113.728 98.4729 113.577 98.6236 113.39 98.6236ZM118.796 98.6236 116.093 98.6236C115.906 98.6236 115.755 98.4729 115.755 98.2859 115.755 98.0993 115.906 97.9482 116.093 97.9482L118.796 97.9482C118.982 97.9482 119.133 98.0993 119.133 98.2859 119.133 98.4729 118.982 98.6236 118.796 98.6236ZM124.201 98.6236 121.498 98.6236C121.311 98.6236 121.16 98.4729 121.16 98.2859 121.16 98.0993 121.311 97.9482 121.498 97.9482L124.201 97.9482C124.386 97.9482 124.537 98.0993 124.537 98.2859 124.537 98.4729 124.386 98.6236 124.201 98.6236ZM129.606 98.6236 126.903 98.6236C126.717 98.6236 126.564 98.4729 126.564 98.2859 126.564 98.0993 126.717 97.9482 126.903 97.9482L129.606 97.9482C129.791 97.9482 129.944 98.0993 129.944 98.2859 129.944 98.4729 129.791 98.6236 129.606 98.6236ZM135.011 98.6236 132.307 98.6236C132.12 98.6236 131.97 98.4729 131.97 98.2859 131.97 98.0993 132.12 97.9482 132.307 97.9482L135.011 97.9482C135.197 97.9482 135.349 98.0993 135.349 98.2859 135.349 98.4729 135.197 98.6236 135.011 98.6236ZM140.415 98.6236 137.713 98.6236C137.527 98.6236 137.375 98.4729 137.375 98.2859 137.375 98.0993 137.527 97.9482 137.713 97.9482L140.415 97.9482C140.602 97.9482 140.754 98.0993 140.754 98.2859 140.754 98.4729 140.602 98.6236 140.415 98.6236ZM145.82 98.6236 143.118 98.6236C142.932 98.6236 142.78 98.4729 142.78 98.2859 142.78 98.0993 142.932 97.9482 143.118 97.9482L145.82 97.9482C146.007 97.9482 146.158 98.0993 146.158 98.2859 146.158 98.4729 146.007 98.6236 145.82 98.6236ZM151.226 98.6236 148.523 98.6236C148.336 98.6236 148.184 98.4729 148.184 98.2859 148.184 98.0993 148.336 97.9482 148.523 97.9482L151.226 97.9482C151.413 97.9482 151.563 98.0993 151.563 98.2859 151.563 98.4729 151.413 98.6236 151.226 98.6236ZM156.631 98.6236 153.927 98.6236C153.742 98.6236 153.591 98.4729 153.591 98.2859 153.591 98.0993 153.742 97.9482 153.927 97.9482L156.631 97.9482C156.818 97.9482 156.969 98.0993 156.969 98.2859 156.969 98.4729 156.818 98.6236 156.631 98.6236ZM162.036 98.6236 159.332 98.6236C159.147 98.6236 158.996 98.4729 158.996 98.2859 158.996 98.0993 159.147 97.9482 159.332 97.9482L162.036 97.9482C162.223 97.9482 162.374 98.0993 162.374 98.2859 162.374 98.4729 162.223 98.6236 162.036 98.6236ZM167.44 98.6236 164.739 98.6236C164.552 98.6236 164.401 98.4729 164.401 98.2859 164.401 98.0993 164.552 97.9482 164.739 97.9482L167.44 97.9482C167.627 97.9482 167.778 98.0993 167.778 98.2859 167.778 98.4729 167.627 98.6236 167.44 98.6236" fill="#99B9FF" transform="matrix(1 0 0 1.0007 1111.21 122.475)"/><path d="M145.798 120.222 98.6579 120.222 101.101 103.751 148.24 103.751 145.798 120.222" fill="#CADDFF" transform="matrix(1 0 0 1.0007 1111.21 122.475)"/><path d="M164.188 120.222 150.46 120.222 152.903 103.751 166.63 103.751 164.188 120.222" fill="#CADDFF" transform="matrix(1 0 0 1.0007 1111.21 122.475)"/><path d="M155.664 177.697 90.1345 177.697 97.8249 125.838 163.355 125.838 155.664 177.697" fill="#FFFFFF" transform="matrix(1 0 0 1.0007 1111.21 122.475)"/><path d="M101.483 126.175 98.7799 126.175C98.5933 126.175 98.4422 126.025 98.4422 125.838 98.4422 125.652 98.5933 125.5 98.7799 125.5L101.483 125.5C101.669 125.5 101.82 125.652 101.82 125.838 101.82 126.025 101.669 126.175 101.483 126.175ZM106.888 126.175 104.185 126.175C103.998 126.175 103.847 126.025 103.847 125.838 103.847 125.652 103.998 125.5 104.185 125.5L106.888 125.5C107.074 125.5 107.226 125.652 107.226 125.838 107.226 126.025 107.074 126.175 106.888 126.175ZM112.293 126.175 109.59 126.175C109.403 126.175 109.252 126.025 109.252 125.838 109.252 125.652 109.403 125.5 109.59 125.5L112.293 125.5C112.479 125.5 112.631 125.652 112.631 125.838 112.631 126.025 112.479 126.175 112.293 126.175ZM117.698 126.175 114.995 126.175C114.808 126.175 114.657 126.025 114.657 125.838 114.657 125.652 114.808 125.5 114.995 125.5L117.698 125.5C117.885 125.5 118.036 125.652 118.036 125.838 118.036 126.025 117.885 126.175 117.698 126.175ZM123.103 126.175 120.4 126.175C120.213 126.175 120.062 126.025 120.062 125.838 120.062 125.652 120.213 125.5 120.4 125.5L123.103 125.5C123.29 125.5 123.441 125.652 123.441 125.838 123.441 126.025 123.29 126.175 123.103 126.175ZM128.508 126.175 125.805 126.175C125.619 126.175 125.467 126.025 125.467 125.838 125.467 125.652 125.619 125.5 125.805 125.5L128.508 125.5C128.695 125.5 128.846 125.652 128.846 125.838 128.846 126.025 128.695 126.175 128.508 126.175ZM133.913 126.175 131.21 126.175C131.024 126.175 130.872 126.025 130.872 125.838 130.872 125.652 131.024 125.5 131.21 125.5L133.913 125.5C134.1 125.5 134.251 125.652 134.251 125.838 134.251 126.025 134.1 126.175 133.913 126.175ZM139.318 126.175 136.615 126.175C136.429 126.175 136.277 126.025 136.277 125.838 136.277 125.652 136.429 125.5 136.615 125.5L139.318 125.5C139.505 125.5 139.656 125.652 139.656 125.838 139.656 126.025 139.505 126.175 139.318 126.175ZM144.723 126.175 142.02 126.175C141.834 126.175 141.683 126.025 141.683 125.838 141.683 125.652 141.834 125.5 142.02 125.5L144.723 125.5C144.91 125.5 145.061 125.652 145.061 125.838 145.061 126.025 144.91 126.175 144.723 126.175ZM150.128 126.175 147.426 126.175C147.239 126.175 147.088 126.025 147.088 125.838 147.088 125.652 147.239 125.5 147.426 125.5L150.128 125.5C150.314 125.5 150.466 125.652 150.466 125.838 150.466 126.025 150.314 126.175 150.128 126.175ZM155.533 126.175 152.831 126.175C152.644 126.175 152.493 126.025 152.493 125.838 152.493 125.652 152.644 125.5 152.831 125.5L155.533 125.5C155.72 125.5 155.871 125.652 155.871 125.838 155.871 126.025 155.72 126.175 155.533 126.175ZM160.938 126.175 158.236 126.175C158.049 126.175 157.898 126.025 157.898 125.838 157.898 125.652 158.049 125.5 158.236 125.5L160.938 125.5C161.125 125.5 161.276 125.652 161.276 125.838 161.276 126.025 161.125 126.175 160.938 126.175ZM162.917 129.132C162.901 129.132 162.884 129.131 162.867 129.128 162.682 129.101 162.555 128.929 162.582 128.744L162.979 126.07C163.007 125.887 163.179 125.759 163.363 125.786 163.547 125.814 163.675 125.985 163.647 126.17L163.251 128.844C163.226 129.011 163.081 129.132 162.917 129.132ZM97.173 130.578C97.1563 130.578 97.1395 130.577 97.1228 130.574 96.9381 130.546 96.811 130.375 96.8381 130.19L97.2348 127.517C97.2619 127.333 97.4346 127.206 97.6184 127.233 97.803 127.259 97.9306 127.432 97.9031 127.617L97.5067 130.289C97.4816 130.458 97.3373 130.578 97.173 130.578ZM162.124 134.479C162.108 134.479 162.091 134.477 162.074 134.474 161.89 134.447 161.763 134.275 161.79 134.091L162.186 131.417C162.214 131.233 162.385 131.107 162.57 131.132 162.754 131.16 162.882 131.333 162.855 131.516L162.458 134.189C162.433 134.358 162.289 134.479 162.124 134.479ZM96.3799 135.925C96.3632 135.925 96.3468 135.923 96.3297 135.921 96.1455 135.893 96.0179 135.722 96.0454 135.537L96.4417 132.864C96.4692 132.679 96.6415 132.553 96.8253 132.579 97.0099 132.606 97.1375 132.778 97.11 132.963L96.7137 135.636C96.6889 135.804 96.5446 135.925 96.3799 135.925ZM161.332 139.824C161.315 139.824 161.298 139.823 161.282 139.821 161.097 139.793 160.97 139.622 160.997 139.437L161.393 136.764C161.421 136.579 161.593 136.453 161.777 136.479 161.962 136.507 162.089 136.678 162.062 136.863L161.666 139.536C161.64 139.704 161.496 139.824 161.332 139.824ZM95.5872 141.271C95.5705 141.271 95.5537 141.27 95.537 141.268 95.3524 141.24 95.2252 141.069 95.2523 140.884L95.6486 138.21C95.6761 138.026 95.8484 137.9 96.0326 137.926 96.2172 137.953 96.3444 138.125 96.3173 138.309L95.9206 140.983C95.8958 141.15 95.7515 141.271 95.5872 141.271ZM160.539 145.171C160.522 145.171 160.505 145.17 160.489 145.168 160.304 145.14 160.176 144.969 160.204 144.784L160.601 142.111C160.627 141.926 160.8 141.798 160.984 141.826 161.169 141.854 161.296 142.025 161.269 142.21L160.872 144.883C160.847 145.05 160.703 145.171 160.539 145.171ZM94.7941 146.617C94.7778 146.617 94.761 146.616 94.7443 146.614 94.5597 146.587 94.4321 146.415 94.4596 146.231L94.8559 143.557C94.8834 143.372 95.0549 143.246 95.2399 143.272 95.4241 143.3 95.5517 143.471 95.5242 143.656L95.1279 146.329C95.1031 146.497 94.9588 146.617 94.7941 146.617ZM159.745 150.518C159.729 150.518 159.712 150.517 159.696 150.514 159.511 150.487 159.383 150.314 159.411 150.13L159.808 147.458C159.835 147.273 160.007 147.146 160.192 147.173 160.375 147.2 160.503 147.372 160.476 147.556L160.079 150.23C160.055 150.397 159.91 150.518 159.745 150.518ZM94.001 151.964C93.9847 151.964 93.9679 151.963 93.9512 151.96 93.7666 151.934 93.6394 151.761 93.6665 151.577L94.0632 148.904C94.0908 148.719 94.2626 148.593 94.4468 148.619 94.6314 148.647 94.759 148.818 94.7315 149.003L94.3348 151.676C94.3101 151.844 94.1657 151.964 94.001 151.964ZM158.952 155.865C158.936 155.865 158.92 155.864 158.903 155.861 158.718 155.834 158.591 155.662 158.619 155.477L159.015 152.804C159.042 152.62 159.214 152.492 159.399 152.52 159.583 152.546 159.711 152.718 159.683 152.904L159.286 155.577C159.262 155.744 159.117 155.865 158.952 155.865ZM93.2083 157.311C93.192 157.311 93.1752 157.309 93.1585 157.307 92.9739 157.279 92.8463 157.108 92.8738 156.923L93.2701 154.25C93.2977 154.066 93.4695 153.939 93.6537 153.966 93.8383 153.992 93.966 154.165 93.9384 154.349L93.5421 157.022C93.5174 157.191 93.373 157.311 93.2083 157.311ZM158.16 161.211C158.143 161.211 158.127 161.209 158.11 161.207 157.926 161.18 157.798 161.008 157.826 160.824L158.221 158.15C158.249 157.965 158.422 157.84 158.605 157.865 158.79 157.893 158.918 158.065 158.89 158.249L158.493 160.923C158.469 161.091 158.325 161.211 158.16 161.211ZM92.4156 162.657C92.3989 162.657 92.3822 162.656 92.3654 162.654 92.1808 162.626 92.0536 162.454 92.0807 162.27L92.4775 159.596C92.5046 159.412 92.676 159.286 92.861 159.312 93.0457 159.339 93.1729 159.511 93.1457 159.696L92.7494 162.369C92.7243 162.536 92.5799 162.657 92.4156 162.657ZM157.367 166.557C157.351 166.557 157.333 166.556 157.317 166.554 157.133 166.526 157.005 166.355 157.032 166.17L157.43 163.497C157.456 163.312 157.629 163.185 157.812 163.212 157.997 163.24 158.125 163.411 158.097 163.596L157.701 166.269C157.676 166.437 157.532 166.557 157.367 166.557ZM91.6226 168.004C91.6062 168.004 91.5895 168.003 91.5727 168.001 91.3881 167.973 91.2605 167.802 91.288 167.617L91.6844 164.943C91.7119 164.758 91.8841 164.632 92.0684 164.658 92.2526 164.686 92.3802 164.858 92.3527 165.042L91.9563 167.716C91.9316 167.883 91.7872 168.004 91.6226 168.004ZM156.574 171.904C156.558 171.904 156.541 171.903 156.524 171.901 156.339 171.873 156.211 171.702 156.239 171.517L156.636 168.843C156.663 168.659 156.835 168.531 157.019 168.559 157.204 168.586 157.331 168.758 157.304 168.943L156.908 171.616C156.883 171.783 156.738 171.904 156.574 171.904ZM90.8295 173.35C90.8131 173.35 90.7964 173.349 90.7796 173.347 90.595 173.32 90.4678 173.147 90.4949 172.964L90.8917 170.29C90.9188 170.105 91.091 169.979 91.2753 170.005 91.4599 170.033 91.5871 170.204 91.56 170.389L91.1636 173.063C91.1385 173.23 90.9941 173.35 90.8295 173.35ZM155.781 177.251C155.764 177.251 155.748 177.25 155.731 177.247 155.547 177.22 155.42 177.048 155.447 176.864L155.843 174.191C155.871 174.006 156.042 173.879 156.227 173.906 156.412 173.933 156.538 174.105 156.512 174.289L156.115 176.963C156.09 177.13 155.946 177.251 155.781 177.251ZM90.8039 178.035 90.1345 178.035C90.0364 178.035 89.9431 177.992 89.8789 177.917 89.8147 177.844 89.786 177.745 89.8003 177.648L90.0986 175.637C90.1261 175.452 90.2976 175.325 90.4826 175.352 90.6668 175.379 90.7944 175.551 90.7669 175.736L90.526 177.359 90.8039 177.359C90.9906 177.359 91.1417 177.51 91.1417 177.697 91.1417 177.884 90.9906 178.035 90.8039 178.035ZM96.2089 178.035 93.5066 178.035C93.32 178.035 93.1689 177.884 93.1689 177.697 93.1689 177.51 93.32 177.359 93.5066 177.359L96.2089 177.359C96.3955 177.359 96.5466 177.51 96.5466 177.697 96.5466 177.884 96.3955 178.035 96.2089 178.035ZM101.614 178.035 98.9115 178.035C98.7249 178.035 98.5738 177.884 98.5738 177.697 98.5738 177.51 98.7249 177.359 98.9115 177.359L101.614 177.359C101.801 177.359 101.952 177.51 101.952 177.697 101.952 177.884 101.801 178.035 101.614 178.035ZM107.019 178.035 104.317 178.035C104.13 178.035 103.979 177.884 103.979 177.697 103.979 177.51 104.13 177.359 104.317 177.359L107.019 177.359C107.205 177.359 107.356 177.51 107.356 177.697 107.356 177.884 107.205 178.035 107.019 178.035ZM112.425 178.035 109.722 178.035C109.535 178.035 109.384 177.884 109.384 177.697 109.384 177.51 109.535 177.359 109.722 177.359L112.425 177.359C112.611 177.359 112.762 177.51 112.762 177.697 112.762 177.884 112.611 178.035 112.425 178.035ZM117.83 178.035 115.127 178.035C114.94 178.035 114.789 177.884 114.789 177.697 114.789 177.51 114.94 177.359 115.127 177.359L117.83 177.359C118.015 177.359 118.167 177.51 118.167 177.697 118.167 177.884 118.015 178.035 117.83 178.035ZM123.235 178.035 120.532 178.035C120.345 178.035 120.194 177.884 120.194 177.697 120.194 177.51 120.345 177.359 120.532 177.359L123.235 177.359C123.42 177.359 123.572 177.51 123.572 177.697 123.572 177.884 123.42 178.035 123.235 178.035ZM128.639 178.035 125.936 178.035C125.75 178.035 125.599 177.884 125.599 177.697 125.599 177.51 125.75 177.359 125.936 177.359L128.639 177.359C128.825 177.359 128.978 177.51 128.978 177.697 128.978 177.884 128.825 178.035 128.639 178.035ZM134.045 178.035 131.342 178.035C131.156 178.035 131.004 177.884 131.004 177.697 131.004 177.51 131.156 177.359 131.342 177.359L134.045 177.359C134.23 177.359 134.382 177.51 134.382 177.697 134.382 177.884 134.23 178.035 134.045 178.035ZM139.45 178.035 136.747 178.035C136.561 178.035 136.408 177.884 136.408 177.697 136.408 177.51 136.561 177.359 136.747 177.359L139.45 177.359C139.636 177.359 139.787 177.51 139.787 177.697 139.787 177.884 139.636 178.035 139.45 178.035ZM144.855 178.035 142.152 178.035C141.966 178.035 141.814 177.884 141.814 177.697 141.814 177.51 141.966 177.359 142.152 177.359L144.855 177.359C145.041 177.359 145.192 177.51 145.192 177.697 145.192 177.884 145.041 178.035 144.855 178.035ZM150.259 178.035 147.556 178.035C147.371 178.035 147.219 177.884 147.219 177.697 147.219 177.51 147.371 177.359 147.556 177.359L150.259 177.359C150.446 177.359 150.597 177.51 150.597 177.697 150.597 177.884 150.446 178.035 150.259 178.035ZM155.664 178.035 152.961 178.035C152.776 178.035 152.625 177.884 152.625 177.697 152.625 177.51 152.776 177.359 152.961 177.359L155.664 177.359C155.851 177.359 156.003 177.51 156.003 177.697 156.003 177.884 155.851 178.035 155.664 178.035" fill="#99B9FF" transform="matrix(1 0 0 1.0007 1111.21 122.475)"/><path d="M174.62 49.7227 109.187 49.7227C109.001 49.7227 108.849 49.5724 108.849 49.3854 108.849 49.1992 109.001 49.0476 109.187 49.0476L174.62 49.0476C174.806 49.0476 174.958 49.1992 174.958 49.3854 174.958 49.5724 174.806 49.7227 174.62 49.7227" transform="matrix(1 0 0 1.0007 1111.21 122.475)"/><path d="M113.438 46.0651C113.359 46.605 112.857 47.042 112.318 47.042 111.779 47.042 111.406 46.605 111.486 46.0651 111.565 45.5264 112.067 45.0894 112.607 45.0894 113.146 45.0894 113.518 45.5264 113.438 46.0651" fill="#CADDFF" transform="matrix(1 0 0 1.0007 1111.21 122.475)"/><path d="M117.344 46.0651C117.263 46.605 116.762 47.042 116.223 47.042 115.683 47.042 115.312 46.605 115.391 46.0651 115.471 45.5264 115.973 45.0894 116.512 45.0894 117.051 45.0894 117.424 45.5264 117.344 46.0651" fill="#CADDFF" transform="matrix(1 0 0 1.0007 1111.21 122.475)"/><path d="M121.249 46.0651C121.169 46.605 120.667 47.042 120.128 47.042 119.589 47.042 119.216 46.605 119.297 46.0651 119.376 45.5264 119.879 45.0894 120.417 45.0894 120.957 45.0894 121.329 45.5264 121.249 46.0651" fill="#CADDFF" transform="matrix(1 0 0 1.0007 1111.21 122.475)"/><path d="M175.161 46.404 169.66 46.404C169.475 46.404 169.323 46.2525 169.323 46.0663 169.323 45.8797 169.475 45.7281 169.66 45.7281L175.161 45.7281C175.348 45.7281 175.499 45.8797 175.499 46.0663 175.499 46.2525 175.348 46.404 175.161 46.404" transform="matrix(1 0 0 1.0007 1111.21 122.475)"/><path d="M167.189 46.404 134.43 46.404C134.243 46.404 134.092 46.2525 134.092 46.0663 134.092 45.8797 134.243 45.7281 134.43 45.7281L167.189 45.7281C167.374 45.7281 167.525 45.8797 167.525 46.0663 167.525 46.2525 167.374 46.404 167.189 46.404" transform="matrix(1 0 0 1.0007 1111.21 122.475)"/><path d="M128.44 46.404 123.592 46.404C123.405 46.404 123.254 46.2525 123.254 46.0663 123.254 45.8797 123.405 45.7281 123.592 45.7281L128.44 45.7281C128.628 45.7281 128.778 45.8797 128.778 46.0663 128.778 46.2525 128.628 46.404 128.44 46.404" transform="matrix(1 0 0 1.0007 1111.21 122.475)"/><path d="M101.738 106.405C96.8927 101.162 89.6887 100.058 84.2746 101.537 77.4227 103.408 73.9672 109.336 71.5305 113.517 67.2225 120.907 69.3032 123.584 65.9175 127.877 59.9212 135.48 50.5218 130.727 43.2145 136.282 32.0666 144.754 30.5518 173.509 45.6356 184.456 55.695 191.758 69.3785 187.535 73.1015 186.387 84.4002 182.9 98.4589 173.168 100.476 159.976 102.144 149.067 94.9564 139.993 100.971 130.85 102.503 128.521 103.773 127.889 104.91 124.978 106.757 120.25 107.173 112.288 101.738 106.405" transform="matrix(1 0 0 1.0007 1111.21 122.475)"/><path d="M87.1264 107.699C89.7006 105.61 88.0718 99.4506 86.4242 96.1279 85.8066 94.8826 83.0437 89.3115 79.4104 89.5276 75.6782 89.7493 72.1043 96.0147 73.4365 100.978 75.1016 107.182 84.1099 110.145 87.1264 107.699" transform="matrix(1 0 0 1.0007 1111.21 122.475)"/><path d="M129.446 194.218C129.446 194.218 103.558 149.093 99.9945 146.927 96.431 144.76 99.9945 167.599 99.9945 167.599L119.326 199.871 129.446 194.218" fill="#FFFFFF" transform="matrix(1 0 0 1.0007 1111.21 122.475)"/><path d="M100.318 167.482 119.448 199.417 128.982 194.09C119.992 178.429 102.562 148.883 99.819 147.215 99.573 147.066 99.4785 147.129 99.4378 147.156 99.0646 147.405 98.2859 148.94 99.1133 157.771 99.5455 162.385 100.228 166.892 100.318 167.482ZM119.326 200.209C119.211 200.209 119.1 200.151 119.036 200.046L99.7046 167.773C99.6823 167.735 99.6675 167.694 99.6607 167.651 99.6532 167.603 98.9039 162.779 98.4406 157.835 97.5853 148.705 98.3856 147.047 99.0622 146.595 99.2871 146.444 99.6623 146.329 100.17 146.638 103.767 148.824 128.681 192.204 129.739 194.05 129.784 194.128 129.795 194.221 129.771 194.308 129.747 194.395 129.689 194.469 129.61 194.513L119.49 200.166C119.438 200.195 119.382 200.209 119.326 200.209" transform="matrix(1 0 0 1.0007 1111.21 122.475)"/><path d="M61.7754 146.013C61.7754 146.013 79.5344 137.304 99.9945 146.927 99.9945 146.927 117.523 206.043 118.761 212.191 119.997 218.339 111.749 218.043 103.843 216.78 95.9357 215.518 76.5243 215.531 68.3913 220.005 60.2582 224.479 59.4224 213.527 60.3383 206.225 61.2538 198.924 61.7754 146.013 61.7754 146.013" fill="#FEE9E9" transform="matrix(1 0 0 1.0007 1111.21 122.475)"/><path d="M63.2447 193.483 88.5965 178.369 102.367 182.98C102.367 182.98 101.157 184.305 99.1986 183.661 97.2404 183.018 94.4811 183.195 92.5217 184.796 90.5619 186.397 87.8995 184.796 87.8995 184.796 87.8995 184.796 71.7849 208.667 57.5795 209.159 46.0312 209.559 52.3432 168.997 55.1085 153.808 55.7445 150.314 58.1628 147.41 61.4799 146.146L65.7313 144.524 63.2447 193.483" fill="#FFFFFF" transform="matrix(1 0 0 1.0007 1111.21 122.475)"/><path d="M65.3676 145.024 61.6003 146.461C58.4116 147.677 56.0511 150.516 55.4406 153.868 52.9652 167.465 47.9033 199.896 54.3489 207.355 55.2397 208.386 56.2915 208.865 57.5679 208.821 71.438 208.341 87.4593 184.844 87.6192 184.606 87.7201 184.457 87.9195 184.413 88.0734 184.506 88.0977 184.521 90.5591 185.963 92.308 184.534 94.4129 182.814 97.3385 182.696 99.3043 183.341 100.376 183.693 101.195 183.387 101.666 183.102L88.636 178.739 63.4178 193.773C63.3109 193.837 63.1773 193.836 63.0705 193.773 62.964 193.709 62.901 193.59 62.9074 193.466ZM57.4116 209.5C56.0164 209.5 54.815 208.927 53.8377 207.796 47.2011 200.117 52.283 167.44 54.7759 153.748 55.4287 150.163 57.9515 147.13 61.3595 145.83L65.6108 144.208C65.7177 144.168 65.8377 144.184 65.9298 144.251 66.0223 144.317 66.0746 144.427 66.0686 144.541L63.6144 192.869 88.4235 178.079C88.508 178.03 88.6101 178.018 88.7034 178.049L102.474 182.66C102.582 182.696 102.665 182.784 102.694 182.895 102.722 183.006 102.693 183.123 102.616 183.208 102.561 183.268 101.235 184.686 99.0933 183.983 97.303 183.395 94.6422 183.499 92.7354 185.058 90.9814 186.491 88.78 185.619 88.0064 185.236 87.1718 186.437 83.4002 191.739 78.3099 197.027 70.544 205.094 63.5733 209.29 57.591 209.497 57.5312 209.499 57.471 209.5 57.4116 209.5" transform="matrix(1 0 0 1.0007 1111.21 122.475)"/><path d="M131.208 199.203 94.2032 200.699C92.9512 200.699 92.1836 199.326 92.8387 198.259L111.506 167.868C111.964 167.122 112.777 166.666 113.652 166.666L151.06 167.521 131.208 199.203" transform="matrix(1 0 0 1.0007 1111.21 122.475)"/><path d="M113.645 167.004C112.9 167.004 112.188 167.402 111.794 168.044L93.1266 198.436C92.8838 198.831 92.8742 199.31 93.1007 199.714 93.3272 200.119 93.7395 200.361 94.2032 200.361L131.017 198.873 150.458 167.844ZM94.216 201.036C93.4911 201.036 92.8587 200.665 92.5109 200.044 92.1633 199.423 92.1784 198.689 92.5508 198.083L111.217 167.691C111.734 166.85 112.666 166.329 113.652 166.329L151.661 167.196 131.4 199.534 94.2168 201.036C94.2168 201.036 94.2164 201.036 94.216 201.036" transform="matrix(1 0 0 1.0007 1111.21 122.475)"/><path d="M133.873 200.699 93.9289 200.699 114.832 166.666 154.776 166.666 133.873 200.699" fill="#99B9FF" transform="matrix(1 0 0 1.0007 1111.21 122.475)"/><path d="M94.533 200.361 133.684 200.361 154.171 167.004 115.021 167.004ZM133.873 201.037 93.9293 201.037C93.8069 201.037 93.694 200.97 93.6342 200.863 93.5744 200.757 93.5772 200.627 93.641 200.522L114.544 166.49C114.605 166.39 114.714 166.329 114.832 166.329L154.776 166.329C154.898 166.329 155.01 166.395 155.07 166.501 155.13 166.608 155.128 166.739 155.063 166.843L134.161 200.875C134.099 200.975 133.991 201.037 133.873 201.037" transform="matrix(1 0 0 1.0007 1111.21 122.475)"/><path d="M134.792 199.203C134.792 199.203 134.04 195.27 134.792 192.646 135.542 190.022 140.196 182.218 141.526 180.585 142.856 178.952 143.984 196.389 134.792 199.203" fill="#FFFFFF" transform="matrix(1 0 0 1.0007 1111.21 122.475)"/><path d="M141.69 180.924C140.214 182.838 135.814 190.299 135.117 192.739 134.53 194.79 134.898 197.72 135.059 198.758 138.956 197.351 140.68 193.189 141.44 189.894 142.431 185.602 142.075 181.763 141.69 180.924ZM134.791 199.541C134.731 199.541 134.67 199.525 134.617 199.492 134.534 199.443 134.477 199.361 134.459 199.267 134.428 199.103 133.703 195.224 134.466 192.553 135.219 189.926 139.86 182.095 141.264 180.371 141.512 180.067 141.792 180.141 141.873 180.17 142.847 180.534 142.756 184.545 142.742 185.002 142.566 190.916 140.41 197.837 134.89 199.526 134.857 199.536 134.824 199.541 134.791 199.541" transform="matrix(1 0 0 1.0007 1111.21 122.475)"/><path d="M91.6054 133.198C92.7606 133.778 94.1601 133.555 95.0728 132.64 96.1207 131.59 96.9657 130.474 97.6527 129.345L98.9737 129.372C99.396 129.381 99.7481 129.05 99.7664 128.628L99.9945 123.468C103.032 118.513 100.641 115.856 100.641 115.856 100.416 113.314 93.9975 111.798 90.402 116.698 87.9641 120.021 84.456 116.698 84.456 116.698 84.456 116.698 82.6194 111.745 80.4706 114.792 78.3214 117.838 82.5824 123.195 82.5824 123.195L79.3992 136.755C78.6652 139.883 76.429 142.445 73.4285 143.595L70.371 144.766C70.371 144.766 75.1463 160.411 88.6731 160.121 98.996 159.9 94.5453 145.949 94.5453 145.949L93.1896 145.351C89.64 143.785 87.697 139.925 88.5539 136.141L89.4634 132.126 91.6054 133.198" fill="#FFFFFF" transform="matrix(1 0 0 1.0007 1111.21 122.475)"/><path d="M90.5452 133.473C90.4957 133.473 90.4451 133.462 90.3976 133.438 86.4501 131.519 86.0717 126.871 86.0578 126.674 86.0442 126.487 86.1842 126.326 86.37 126.312 86.5554 126.298 86.7177 126.439 86.7316 126.625 86.7348 126.668 87.1013 131.085 90.6931 132.831 90.861 132.912 90.9307 133.115 90.8494 133.282 90.7908 133.402 90.6704 133.473 90.5452 133.473" transform="matrix(1 0 0 1.0007 1111.21 122.475)"/><path d="M167.834 93.9691 162.803 93.9691C161.921 93.9691 161.208 94.6833 161.208 95.5637L161.208 100.596C161.208 101.477 161.921 102.191 162.803 102.191L167.834 102.191C168.716 102.191 169.429 101.477 169.429 100.596L169.429 95.5637C169.429 94.6833 168.716 93.9691 167.834 93.9691" fill="#99B9FF" transform="matrix(1 0 0 1.0007 1111.21 122.475)"/><path d="M162.804 94.3057C162.11 94.3057 161.547 94.8691 161.547 95.5625L161.547 100.594C161.547 101.288 162.11 101.851 162.804 101.851L167.836 101.851C168.529 101.851 169.092 101.288 169.092 100.594L169.092 95.5625C169.092 94.8691 168.529 94.3057 167.836 94.3057ZM167.836 102.527 162.804 102.527C161.738 102.527 160.872 101.66 160.872 100.594L160.872 95.5625C160.872 94.4971 161.738 93.6294 162.804 93.6294L167.836 93.6294C168.902 93.6294 169.768 94.4971 169.768 95.5625L169.768 100.594C169.768 101.66 168.902 102.527 167.836 102.527" transform="matrix(1 0 0 1.0007 1111.21 122.475)"/><path d="M188.88 120.995C186.929 122.947 183.764 122.947 181.812 120.995 179.862 119.044 179.862 115.88 181.812 113.928 183.764 111.976 186.929 111.976 188.88 113.928 190.833 115.88 190.833 119.044 188.88 120.995ZM200.393 121.524 197.906 110.368C197.744 109.951 197.408 109.626 196.986 109.479L166.87 97.0446C165.667 96.6239 164.51 97.7807 164.929 98.9845L177.365 129.102C177.511 129.523 177.837 129.86 178.255 130.02L189.41 132.508C189.971 132.725 190.609 132.589 191.034 132.164L200.05 123.15C200.475 122.724 200.609 122.085 200.393 121.524" fill="#FEE9E9" transform="matrix(1 0 0 1.0007 1111.21 122.475)"/><path d="M188.881 120.995 188.882 120.995ZM185.348 112.803C184.154 112.803 182.96 113.258 182.052 114.167 180.235 115.983 180.235 118.939 182.052 120.757 183.869 122.573 186.825 122.573 188.642 120.757 190.46 118.939 190.46 115.983 188.642 114.167 187.733 113.258 186.54 112.803 185.348 112.803ZM185.348 122.795C183.98 122.795 182.614 122.274 181.575 121.234 179.494 119.154 179.494 115.77 181.575 113.688 183.655 111.609 187.039 111.609 189.121 113.688 191.2 115.77 191.2 119.154 189.121 121.234 188.08 122.274 186.714 122.795 185.348 122.795ZM178.354 129.697 189.483 132.178C189.5 132.182 189.515 132.186 189.531 132.192 189.969 132.36 190.464 132.256 190.796 131.925L199.81 122.911C200.142 122.579 200.247 122.082 200.077 121.646 200.071 121.63 200.066 121.614 200.064 121.598L197.582 110.468C197.454 110.154 197.197 109.91 196.876 109.797L166.741 97.3568C166.318 97.2101 165.86 97.315 165.529 97.6443 165.2 97.9745 165.095 98.4334 165.25 98.8736L177.678 128.972C177.796 129.311 178.04 129.567 178.354 129.697ZM189.956 132.947C189.741 132.947 189.522 132.91 189.313 132.832L178.182 130.349C178.164 130.346 178.148 130.342 178.134 130.336 177.622 130.138 177.226 129.729 177.045 129.212L164.617 99.1137C164.373 98.4159 164.543 97.6762 165.052 97.167 165.561 96.6566 166.301 96.4876 166.982 96.7256L197.116 109.167C197.614 109.34 198.024 109.737 198.221 110.247 198.227 110.263 198.232 110.279 198.235 110.295L200.717 121.427C200.969 122.107 200.801 122.875 200.288 123.388L191.273 132.402C190.918 132.758 190.442 132.947 189.956 132.947" transform="matrix(1 0 0 1.0007 1111.21 122.475)"/><path d="M208.18 129.894 197.78 140.295C197.355 140.72 196.665 140.72 196.239 140.295L192.186 136.24C191.76 135.814 191.76 135.125 192.186 134.699L202.586 124.3C203.011 123.873 203.7 123.873 204.127 124.3L208.18 128.353C208.606 128.778 208.606 129.468 208.18 129.894" transform="matrix(1 0 0 1.0007 1111.21 122.475)"/><path d="M166.608 98.7209C166.554 98.7735 166.488 98.8054 166.419 98.8166 166.484 98.8066 166.551 98.7779 166.608 98.7209ZM178.959 111.409C178.872 111.409 178.785 111.376 178.719 111.309 173.977 106.5 166.795 99.2576 166.21 98.7803 166.181 98.7648 166.155 98.7452 166.129 98.7209 165.998 98.5889 165.998 98.3752 166.129 98.2432 166.193 98.1794 166.281 98.1443 166.37 98.1443 166.37 98.1443 166.37 98.1443 166.371 98.1443 166.574 98.1443 166.622 98.1443 172.971 104.539 176.061 107.651 179.169 110.803 179.2 110.835 179.33 110.968 179.33 111.181 179.196 111.313 179.13 111.378 179.044 111.409 178.959 111.409" transform="matrix(1 0 0 1.0007 1111.21 122.475)"/><path d="M170.948 82.0911C170.862 82.0911 170.775 82.058 170.711 81.9918 170.578 81.861 170.578 81.6461 170.711 81.5149L189.206 63.0198C190.873 61.3515 193.588 61.3515 195.257 63.0198 196.662 64.4238 198.949 64.4238 200.353 63.0198L206.687 56.6855C206.819 56.5531 207.033 56.5531 207.164 56.6855 207.297 56.8175 207.297 57.0312 207.164 57.1636L200.831 63.4967C199.162 65.1655 196.449 65.1655 194.779 63.4967 193.375 62.0916 191.088 62.0916 189.683 63.4967L171.188 81.9918C171.121 82.058 171.035 82.0911 170.948 82.0911" transform="matrix(1 0 0 1.0007 1111.21 122.475)"/><path d="M145.613 83.1047C145.528 83.1047 145.441 83.0716 145.374 83.0046 145.242 82.873 145.242 82.6589 145.374 82.5273L151.455 76.4466C151.586 76.315 151.801 76.315 151.933 76.4466 152.065 76.5782 152.065 76.7923 151.933 76.9239L145.853 83.0046C145.786 83.0716 145.7 83.1047 145.613 83.1047" transform="matrix(1 0 0 1.0007 1111.21 122.475)"/><path d="M127.371 101.347C127.285 101.347 127.198 101.313 127.132 101.247 127.001 101.116 127.001 100.901 127.132 100.77L141.321 86.5809C141.453 86.4493 141.667 86.4493 141.798 86.5809 141.93 86.7133 141.93 86.9278 141.798 87.059L127.609 101.247C127.544 101.313 127.457 101.347 127.371 101.347" transform="matrix(1 0 0 1.0007 1111.21 122.475)"/><path d="M123.317 105.4C123.231 105.4 123.145 105.367 123.078 105.3 122.947 105.169 122.947 104.956 123.078 104.823L125.106 102.797C125.237 102.665 125.451 102.665 125.584 102.797 125.715 102.928 125.715 103.143 125.584 103.274L123.556 105.3C123.49 105.367 123.404 105.4 123.317 105.4" transform="matrix(1 0 0 1.0007 1111.21 122.475)"/><path d="M125.345 160.126C125.258 160.126 125.171 160.094 125.106 160.027 124.973 159.896 124.973 159.681 125.106 159.55L151.455 133.2C151.586 133.068 151.801 133.068 151.933 133.2 152.064 133.332 152.064 133.546 151.933 133.678L125.584 160.027C125.517 160.094 125.43 160.126 125.345 160.126" transform="matrix(1 0 0 1.0007 1111.21 122.475)"/><path d="M48.3223 119.588C48.2358 119.588 48.1493 119.556 48.0835 119.489 47.9515 119.358 47.9515 119.144 48.0835 119.012L67.339 99.756C67.471 99.624 67.6847 99.624 67.8167 99.756 67.9487 99.8884 67.9487 100.102 67.8167 100.234L48.5612 119.489C48.4954 119.556 48.4089 119.588 48.3223 119.588" transform="matrix(1 0 0 1.0007 1111.21 122.475)"/><path d="M143.464 77.2624C142.091 77.2624 140.976 76.1483 140.976 74.779 140.976 73.409 142.091 72.2949 143.464 72.2949 143.65 72.2949 143.801 72.4464 143.801 72.6326 143.801 72.8188 143.65 72.9704 143.464 72.9704 142.464 72.9704 141.652 73.7818 141.652 74.779 141.652 75.7755 142.464 76.5869 143.464 76.5869 144.462 76.5869 145.275 75.7755 145.275 74.779 145.275 74.592 145.425 74.4405 145.613 74.4405 145.799 74.4405 145.95 74.592 145.95 74.779 145.95 76.1483 144.835 77.2624 143.464 77.2624" transform="matrix(1 0 0 1.0007 1111.21 122.475)"/><path d="M138.156 158.265C138.072 158.265 137.988 158.233 137.923 158.17 137.788 158.041 137.783 157.828 137.912 157.693L138.975 156.581C139.104 156.446 139.318 156.442 139.452 156.571 139.587 156.699 139.592 156.914 139.464 157.049L138.4 158.159C138.334 158.229 138.245 158.265 138.156 158.265" transform="matrix(1 0 0 1.0007 1111.21 122.475)"/><path d="M134.436 162.153C134.351 162.153 134.267 162.122 134.202 162.06 134.067 161.93 134.062 161.717 134.191 161.582L135.254 160.47C135.383 160.336 135.597 160.332 135.732 160.46 135.867 160.589 135.872 160.803 135.742 160.938L134.68 162.049C134.613 162.118 134.524 162.153 134.436 162.153" transform="matrix(1 0 0 1.0007 1111.21 122.475)"/><path d="M135.479 158.324C135.393 158.324 135.307 158.291 135.241 158.227L134.162 157.163C134.029 157.031 134.027 156.818 134.159 156.685 134.29 156.553 134.503 156.55 134.636 156.681L135.715 157.745C135.848 157.875 135.849 158.09 135.719 158.223 135.652 158.29 135.566 158.324 135.479 158.324" transform="matrix(1 0 0 1.0007 1111.21 122.475)"/><path d="M139.255 162.046C139.17 162.046 139.084 162.014 139.019 161.948L137.939 160.885C137.806 160.754 137.805 160.541 137.936 160.407 138.066 160.274 138.281 160.273 138.413 160.404L139.492 161.468C139.625 161.598 139.627 161.813 139.496 161.945 139.43 162.013 139.342 162.046 139.255 162.046" transform="matrix(1 0 0 1.0007 1111.21 122.475)"/><path d="M146.765 146.522 146.767 146.522ZM147.597 146.681C147.361 146.681 147.126 146.731 146.903 146.831 146.026 147.225 145.628 148.276 146.015 149.174 146.204 149.612 146.548 149.947 146.985 150.118 147.412 150.283 147.875 150.271 148.292 150.083 149.169 149.689 149.567 148.637 149.18 147.739 148.992 147.301 148.648 146.967 148.211 146.797 148.012 146.719 147.804 146.681 147.597 146.681ZM147.598 150.909C147.308 150.909 147.019 150.856 146.74 150.746 146.134 150.511 145.655 150.048 145.394 149.442 144.863 148.207 145.415 146.759 146.626 146.215 147.21 145.952 147.86 145.936 148.456 146.167 149.062 146.403 149.541 146.867 149.801 147.472 150.333 148.707 149.781 150.154 148.57 150.699 148.259 150.839 147.929 150.909 147.598 150.909" transform="matrix(1 0 0 1.0007 1111.21 122.475)"/><path d="M209.92 52.7009C209.767 52.7009 209.612 52.7332 209.467 52.7998 208.889 53.0586 208.628 53.7504 208.882 54.3421 209.007 54.6308 209.233 54.8505 209.52 54.9625 209.798 55.0702 210.104 55.0626 210.377 54.939 210.953 54.6802 211.214 53.9884 210.961 53.3967 210.836 53.108 210.61 52.8879 210.322 52.7762 210.193 52.7256 210.056 52.7009 209.92 52.7009ZM209.922 55.7142C209.703 55.7142 209.485 55.6739 209.274 55.5917 208.817 55.4135 208.459 55.065 208.262 54.61 207.862 53.6814 208.278 52.5928 209.188 52.1833 209.629 51.9855 210.118 51.9724 210.568 52.1466 211.024 52.3249 211.385 52.6734 211.581 53.1287 211.98 54.0574 211.566 55.1456 210.654 55.5555 210.42 55.6607 210.17 55.7142 209.922 55.7142" transform="matrix(1 0 0 1.0007 1111.21 122.475)"/></g></svg>