<svg xmlns="http://www.w3.org/2000/svg" xmlns:xlink="http://www.w3.org/1999/xlink" preserveAspectRatio="xMidYMid meet" version="1.0" viewBox="-33.7 -10.4 547.4 436.9" zoomAndPan="magnify" style="fill: rgb(0, 0, 0);" original_string_length="5003" width="353.80177632550254px" height="282.3981451034466px"><defs><filter id="__id1_svyytcujhm" xlink:actuate="onLoad" xlink:show="other" xlink:type="simple"><feGaussianBlur stdDeviation="10"/></filter><filter data-name="AI_GaussianBlur_10" id="__id2_svyytcujhm" xlink:actuate="onLoad" xlink:show="other" xlink:type="simple"><feGaussianBlur stdDeviation="10"/></filter><filter data-name="AI_GaussianBlur_10" id="__id3_svyytcujhm" xlink:actuate="onLoad" xlink:show="other" xlink:type="simple"><feGaussianBlur stdDeviation="10"/></filter><filter id="__id4_svyytcujhm" xlink:actuate="onLoad" xlink:show="other" xlink:type="simple"><feGaussianBlur stdDeviation="7"/></filter><radialGradient cx="242.461" cy="199.21" fx="242.461" fy="199.21" gradientUnits="userSpaceOnUse" id="__id5_svyytcujhm" r="116.752" xlink:actuate="onLoad" xlink:show="other" xlink:type="simple"><stop offset="0" style="stop-color: rgb(240, 117, 138);"/><stop offset=".172" stop-opacity=".81" style="stop-color: rgb(240, 117, 138);"/><stop offset=".582" stop-opacity=".378" style="stop-color: rgb(240, 117, 138);"/><stop offset=".866" stop-opacity=".106" style="stop-color: rgb(240, 117, 138);"/><stop offset=".999" stop-opacity="0" style="stop-color: rgb(240, 117, 138);"/></radialGradient></defs><g filter="url(#__id1_svyytcujhm)" id="__id6_svyytcujhm"><path d="M389.267,36.117c-62.107,7.982-128.449,101.476-149.267,133.128-20.819-31.652-87.16-125.147-149.268-133.128-78.801-10.127-49.345,42.729-20.916,87.436,10.014,15.747,14.371,34.383,12.666,52.966-2.523,27.513-1.502,48.919,22.664,51.494,9.162.976,24.238,2.582,41.012,4.37-29.968,10.503-58.573,16.982-61.782,52.168-3.054,33.494,35.724,40.869,39.943,69.333,4.148,27.985,28.162,36.197,45.292,24.15,21.946-15.435,46.736-40.048,60.379-77.428,1.539-4.217,5.521-7.05,10.01-7.05h0c4.489,0,8.471,2.833,10.01,7.05,13.643,37.379,38.432,61.993,60.379,77.428,17.13,12.047,41.144,3.835,45.292-24.15,4.219-28.464,42.998-35.839,39.943-69.333-3.209-35.186-31.814-41.665-61.782-52.168,16.773-1.788,31.85-3.393,41.011-4.37,24.166-2.575,25.187-23.981,22.664-51.494-1.704-18.583,2.653-37.219,12.666-52.966,28.429-44.707,57.885-97.563-20.916-87.436Z" style="fill: rgb(158, 169, 243);"/></g><g filter="url(#__id2_svyytcujhm)" id="__id7_svyytcujhm"><path d="M342.588,90.225c-42.685,5.486-88.28,69.742-102.588,91.496-14.308-21.754-59.903-86.01-102.588-91.496-54.158-6.96-33.914,29.367-14.375,60.093,6.882,10.823,9.877,23.63,8.705,36.402-1.734,18.909-1.032,33.621,15.576,35.391,6.297.671,16.658,1.774,28.186,3.003-20.596,7.218-40.256,11.671-42.461,35.854-2.099,23.019,24.552,28.088,27.452,47.651,2.851,19.234,19.355,24.877,31.128,16.598,15.083-10.608,32.12-27.524,41.497-53.214,1.058-2.898,3.794-4.845,6.88-4.845h0c3.085,0,5.822,1.947,6.88,4.845,9.377,25.69,26.414,42.606,41.497,53.214,11.773,8.279,28.277,2.636,31.128-16.598,2.9-19.563,29.551-24.631,27.452-47.651-2.205-24.182-21.865-28.635-42.461-35.854,11.528-1.229,21.889-2.332,28.186-3.003,16.609-1.77,17.311-16.482,15.576-35.391-1.171-12.772,1.823-25.58,8.705-36.402,19.539-30.726,39.783-67.053-14.375-60.093Z" style="fill: rgb(252, 215, 247);"/></g><g filter="url(#__id3_svyytcujhm)"><path d="M342.588,90.225c-42.685,5.486-88.28,69.742-102.588,91.496-14.308-21.754-59.903-86.01-102.588-91.496-54.158-6.96-33.914,29.367-14.375,60.093,6.882,10.823,9.877,23.63,8.705,36.402-1.734,18.909-1.032,33.621,15.576,35.391,6.297.671,16.658,1.774,28.186,3.003-20.596,7.218-40.256,11.671-42.461,35.854-2.099,23.019,24.552,28.088,27.452,47.651,2.851,19.234,19.355,24.877,31.128,16.598,15.083-10.608,32.12-27.524,41.497-53.214,1.058-2.898,3.794-4.845,6.88-4.845h0c3.085,0,5.822,1.947,6.88,4.845,9.377,25.69,26.414,42.606,41.497,53.214,11.773,8.279,28.277,2.636,31.128-16.598,2.9-19.563,29.551-24.631,27.452-47.651-2.205-24.182-21.865-28.635-42.461-35.854,11.528-1.229,21.889-2.332,28.186-3.003,16.609-1.77,17.311-16.482,15.576-35.391-1.171-12.772,1.823-25.58,8.705-36.402,19.539-30.726,39.783-67.053-14.375-60.093Z" style="fill: url(&quot;#__id5_svyytcujhm&quot;);"/></g><g filter="url(#__id4_svyytcujhm)" id="__id8_svyytcujhm"><path d="M294.882,145.523c-22.835,2.935-47.227,37.31-54.882,48.948-7.654-11.638-32.047-46.013-54.882-48.948-28.973-3.724-18.143,15.71-7.69,32.148,3.682,5.79,5.284,12.642,4.657,19.474-.928,10.116-.552,17.986,8.333,18.933,3.369.359,8.912.949,15.079,1.607-11.018,3.862-21.536,6.244-22.716,19.181-1.123,12.315,13.135,15.026,14.686,25.492,1.525,10.289,10.354,13.309,16.653,8.879,8.069-5.675,17.184-14.725,22.2-28.468.566-1.551,2.03-2.592,3.68-2.592h0c1.651,0,3.115,1.041,3.68,2.592,5.016,13.743,14.131,22.793,22.2,28.468,6.298,4.429,15.127,1.41,16.653-8.879,1.551-10.465,15.809-13.177,14.686-25.492-1.18-12.937-11.697-15.319-22.716-19.181,6.167-.657,11.71-1.248,15.079-1.607,8.885-.947,9.261-8.817,8.333-18.933-.627-6.833.975-13.684,4.657-19.474,10.453-16.438,21.283-35.871-7.69-32.148Z" style="fill: rgb(253, 250, 229);"/></g></svg>