<svg xmlns="http://www.w3.org/2000/svg" xmlns:xlink="http://www.w3.org/1999/xlink" preserveAspectRatio="xMidYMid meet" version="1.0" viewBox="-1.7 -1.8 339.5 165.5" zoomAndPan="magnify" style="fill: rgb(0, 0, 0);" original_string_length="2639" width="235.62421801717633px" height="115.24166299385531px"><g data-name="12" id="__id0_svyytcujhm"><path d="M334.168,31.105a44.343,44.343,0,0,0-19.53-24.161c-8.6-5.118-18.935-7.059-28.61-4.085-1.165.358-.668,2.191.5,1.831,21-6.458,42.643,11.175,46.723,31.386,4.34,21.5-6.684,42.432-22.23,56.842a59.352,59.352,0,0,0,7.361-14.9,45.46,45.46,0,0,0-1.366-33.1c-4.188-9.234-11.576-16.582-19.948-22.119-19.548-12.927-43.9-17.051-66.8-19.185a275.614,275.614,0,0,0-41.259-.723,310.141,310.141,0,0,1,58,.169A299.192,299.192,0,0,1,282.87,8.778c.98.218,1.4-1.287.415-1.506a306.074,306.074,0,0,0-76.577-7.1,317.2,317.2,0,0,0-76.042,11.857A309.39,309.39,0,0,0,59.814,41.977C48.758,48.4,37.872,55.4,28.073,63.634,18.438,71.735,9.717,81.476,4.7,93.152c-4.729,11.014-6.357,23.812-2.717,35.389,3.305,10.507,10.934,18.8,20.459,24.1,9.578,5.329,20.481,7.873,31.272,9.264,13.372,1.724,27.027,1.875,40.489,1.57,29.242-.662,58.345-4.8,86.839-11.308,14.366-3.281,28.59-7.17,42.662-11.538,13.534-4.2,27.056-8.678,40.206-13.976,15.035-6.057,30.042-14.227,40.972-26.047,11.983-8.937,21.933-20.232,27.449-34.68C336.526,54.95,337.8,42.423,334.168,31.105ZM234.1,6.105c11.994,1.288,24.049,3.183,35.623,6.655,18.888,5.665,39.595,16.43,46.682,36.155,3.982,11.081,2.718,23.167-2.054,33.8A62.9,62.9,0,0,1,303.54,99.089c-10.1,7.449-21.443,13.059-33.03,17.789-12.586,5.137-25.5,9.528-38.514,13.455a489.975,489.975,0,0,1-82.377,17.314,459.562,459.562,0,0,1-82.822,2.99c-10.9-.658-22.614-2.262-31.82-8.613-10.137-6.992-13.844-18.963-13.261-30.837C22.826,88.6,36.468,68.381,52.93,53.8,70.558,38.175,92.1,27.587,114.188,19.868A275.507,275.507,0,0,1,234.1,6.105ZM290.778,110.32c-10.543,7.42-22.457,12.6-34.486,17.082-13.062,4.872-26.323,9.257-39.68,13.249A507.041,507.041,0,0,1,133.1,158.6a392.885,392.885,0,0,1-42.607,2.932c-12.768.165-25.731-.039-38.393-1.844-10.615-1.514-21.372-4.253-30.595-9.9-9.55-5.845-16.5-14.922-18.738-25.99-2.424-11.984.425-24.8,6.333-35.358C15.275,77.4,24.544,68.42,34.516,60.79a256.461,256.461,0,0,1,37.49-23.628c-18.406,11.347-35.3,26.529-44.849,46.2-9.592,19.759-13.107,48.932,8.9,61.858,9.771,5.738,21.561,7.09,32.671,7.641,14.324.71,28.706.653,43.032.028a493.758,493.758,0,0,0,85.828-11.352q21.232-4.733,41.99-11.334a371.315,371.315,0,0,0,38.647-14.325,156.076,156.076,0,0,0,16.422-8.459Q292.761,108.924,290.778,110.32Z" style="fill: inherit;"/></g></svg>