<svg xmlns="http://www.w3.org/2000/svg" xmlns:xlink="http://www.w3.org/1999/xlink" data-name="Layer 1" preserveAspectRatio="xMidYMid meet" version="1.0" viewBox="-4.6 0.0 517.3 215.3" zoomAndPan="magnify" style="fill: rgb(0, 0, 0);" original_string_length="2630" width="366.9431275549052px" height="152.781774927406px"><g id="__id109_s3nq6hopq"><path d="M430.04244,106.90159a78.36685,78.36685,0,0,0-29.66536,5.83213,51.39994,51.39994,0,0,0-66.90169-32.29313A65.51784,65.51784,0,0,0,207.45175,63.47831,66.34035,66.34035,0,0,0,91.86738,121.316,74.2653,74.2653,0,0,0,3.27814,215.28621H502.85655a78.62008,78.62008,0,0,0-72.81411-108.38462Z" style="fill: rgb(253, 250, 229);"/></g><g id="__id110_s3nq6hopq"><path d="M124.80111,179.22913a24.97528,24.97528,0,0,0-12.62769,6.7398,24.27354,24.27354,0,0,0-6.25525,12.589c-2.10919-10.568-8.44757-16.86718-18.9718-19.37133,10.4707-2.52112,16.86078-8.76746,18.9231-19.44452C107.98812,170.27356,114.26589,176.70044,124.80111,179.22913Zm329.9237-37.09034c-2.06231,10.67707-8.45239,16.9234-18.92309,19.44452,10.52423,2.50415,16.86261,8.80335,18.9718,19.37134a24.27339,24.27339,0,0,1,6.25525-12.589,24.9753,24.9753,0,0,1,12.62768-6.73981C463.12124,159.09711,456.84347,152.67023,454.72481,142.13879ZM315.41091,0c-1.39423,7.21844-5.71436,11.44141-12.79327,13.14587,7.11511,1.693,11.40026,5.95166,12.82623,13.09638a16.4108,16.4108,0,0,1,4.229-8.51111A16.88492,16.88492,0,0,1,328.21,13.17462C321.08755,11.465,316.84328,7.12,315.41091,0ZM52.16347,81.50476c-1.39428,7.21845-5.71441,11.44141-12.79333,13.14587,7.11511,1.693,11.40033,5.95166,12.82629,13.09638a16.41,16.41,0,0,1,4.229-8.511,16.885,16.885,0,0,1,8.53717-4.55658C57.84005,92.96979,53.59585,88.62476,52.16347,81.50476Z" style="fill: rgb(255, 207, 217);"/></g><g id="__id111_s3nq6hopq"><path d="M320.33578,179.22913a24.97524,24.97524,0,0,0-12.62769,6.7398,24.27354,24.27354,0,0,0-6.25525,12.589c-2.10919-10.568-8.44757-16.86718-18.9718-19.37133,10.4707-2.52112,16.86078-8.76746,18.9231-19.44452C303.52279,170.27356,309.80056,176.70044,320.33578,179.22913ZM169.87765,55.26245c-1.39429,7.21851-5.71436,11.44147-12.79334,13.14594,7.11511,1.69293,11.40033,5.95166,12.82629,13.09637a16.41048,16.41048,0,0,1,4.229-8.51111,16.885,16.885,0,0,1,8.53717-4.55658C175.55428,66.72748,171.31,62.38251,169.87765,55.26245ZM388.3445,110.29468a7.25793,7.25793,0,0,1-5.93408,6.09759,7.27933,7.27933,0,0,1,5.9494,6.07471,7.6117,7.6117,0,0,1,1.96161-3.94781,7.83175,7.83175,0,0,1,3.9599-2.11353A7.32693,7.32693,0,0,1,388.3445,110.29468ZM182.04085,155.46051a7.25793,7.25793,0,0,1-5.93414,6.09766,7.27911,7.27911,0,0,1,5.9494,6.0747,7.61264,7.61264,0,0,1,1.96161-3.94781,7.83173,7.83173,0,0,1,3.96-2.11353A7.32693,7.32693,0,0,1,182.04085,155.46051Z" style="fill: rgb(127, 124, 197);"/></g></svg>