<svg xmlns="http://www.w3.org/2000/svg" xmlns:xlink="http://www.w3.org/1999/xlink" preserveAspectRatio="xMidYMid meet" version="1.0" viewBox="-0.5 -0.7 742.1 210.7" zoomAndPan="magnify" style="fill: rgb(0, 0, 0);" original_string_length="19657" width="102.89122333562415px" height="29.258824964712527px"><g id="__id9_svyytcujhm"><path d="m1.2,170c-1.7,0-1,1.6-1.2,1.9,2.8-.6,1.1-2.4,1.2-1.9Z" style="fill: rgb(0, 0, 0);"/></g><g id="__id10_svyytcujhm"><path d="M28.5 162.6L28.1 163.3 31.8 160.9 28.5 162.6z" style="fill: rgb(0, 0, 0);"/></g><g id="__id11_svyytcujhm"><path d="m53.7,156.4c-1.6-1-3.8-.2-6.2.8-2.4,1-5.1,2.3-7.5,2.4l-.9-.5-1.5,2.7c1.4-.4,2.8-.9,4.3-1.4,1.4-.6,2.9-1.2,4.3-1.7,2.9-1.1,5.5-2.1,7.5-2.3Z" style="fill: rgb(0, 0, 0);"/></g><g id="__id12_svyytcujhm"><path d="m69,157.7c-1.2-.7,2.6-1.9-3.2.8.3,0,.5,0,.7,0,.5-.2,1.3-.5,2.6-.9Z" style="fill: rgb(0, 0, 0);"/></g><g id="__id13_svyytcujhm"><path d="m66.4,158.6c-2.6,1,2,.3,0,0h0Z" style="fill: rgb(0, 0, 0);"/></g><g id="__id14_svyytcujhm"><path d="m78.2,153.4c-1,.8-2,1.5-3.1,2.3,1,.3,4.1-.8,3.1.1,3.3-2,2.3-2.3,0-2.4Z" style="fill: rgb(0, 0, 0);"/></g><g id="__id15_svyytcujhm"><path d="m80.6,150.1l-1.6,1.1c.4.1.9,0,1.6-1.1Z" style="fill: rgb(0, 0, 0);"/></g><g id="__id16_svyytcujhm"><path d="m75.7,153.6c1.1-.8,2.3-1.6,3.4-2.4-.7-.2-1.1-1-1.6,1,0-.9-.4.2-1.8,1.3Z" style="fill: rgb(0, 0, 0);"/></g><g id="__id17_svyytcujhm"><path d="m73.4,154c-2.1.2-4.7.8-1.7-1.5-3.2,1.5-4.4,2.5-4,2.9.4.4,2.5.1,5.6-1.4Z" style="fill: rgb(0, 0, 0);"/></g><g id="__id18_svyytcujhm"><path d="m54.1,153.2h-2.8s-1.9,1.5-1.9,1.5c1-.8,5.2-.7,4.7-1.5Z" style="fill: rgb(0, 0, 0);"/></g><g id="__id19_svyytcujhm"><path d="m99.7,144.9c0-.6-1.9-.8-2.5-1.4-.7.6-1.4,1.2-2.1,1.9,1.4-.2,4-1.1,4.6-.4Z" style="fill: rgb(0, 0, 0);"/></g><g id="__id20_svyytcujhm"><path d="m97.2,143.5l3.1-2.8c-3.2,1.6-3.6,2.4-3.1,2.8Z" style="fill: rgb(0, 0, 0);"/></g><g id="__id21_svyytcujhm"><path d="m79.9,146.9c-1.7,1.5-3.4,3.1-5.2,4.6,2.2-1.6,4.3-3.4,6.4-5.1l-1.1.5Z" style="fill: rgb(0, 0, 0);"/></g><g id="__id22_svyytcujhm"><path d="M113.3 137.2L112.1 139.6 114.5 135.6 113.3 137.2z" style="fill: rgb(0, 0, 0);"/></g><g id="__id23_svyytcujhm"><path d="m121.9,131.4c-.8,1.9,3,.3,1.9,1.9,2.2-1.7,3.7-3.9,4.9-5.9-1.5,1.7-3.7,3-6.8,3.9Z" style="fill: rgb(0, 0, 0);"/></g><g id="__id24_svyytcujhm"><path d="m130.8,124.3c-.8.9-1.4,2-2.2,3.1.8-.9,1.6-1.9,2.2-3.1Z" style="fill: rgb(0, 0, 0);"/></g><g id="__id25_svyytcujhm"><path d="m106.5,137.5c.5.2,1.5.7,3.6-.1l-2.3-.7c-.4.2-.9.5-1.4.8Z" style="fill: rgb(0, 0, 0);"/></g><g id="__id26_svyytcujhm"><path d="m107.8,136.7h0c1.5-.8,2.5-1.4,3-1.7-.4.2-1.3.8-3.1,1.7Z" style="fill: rgb(0, 0, 0);"/></g><g id="__id27_svyytcujhm"><path d="m106.1,137.7c.1,0,.2-.1.4-.2-.2,0-.3,0-.4.2Z" style="fill: rgb(0, 0, 0);"/></g><g id="__id28_svyytcujhm"><path d="m90.1,143.9c1.7-1.9,5.6-5,.7-4.2-1,1.8,1.8,1.3-.7,4.2Z" style="fill: rgb(0, 0, 0);"/></g><g id="__id29_svyytcujhm"><path d="m103.3,136.8c-1.3.6-2.6,1.2-3.9,1.7.3.4,1.3.6.5,1.5,1.2-1.1,2.3-2.1,3.4-3.3Z" style="fill: rgb(0, 0, 0);"/></g><g id="__id30_svyytcujhm"><path d="M104.9 135.3L103.3 136.8 104.8 136.2 104.9 135.3z" style="fill: rgb(0, 0, 0);"/></g><g id="__id31_svyytcujhm"><path d="m123.9,127.2c1.1-1.6,2.7-2.9,4.5-4.3-2.2,1.1-4.3,2.5-6.3,3.8,0,.6-.3,2,1.8.5Z" style="fill: rgb(0, 0, 0);"/></g><g id="__id32_svyytcujhm"><path d="m116.1,131.8c0-.1.2-.2.3-.3-.3,0-.5,0-.3.3Z" style="fill: rgb(0, 0, 0);"/></g><g id="__id33_svyytcujhm"><path d="m146.1,109.7c-.2,0-.3,0-.5,0,0,0,0,.2.1.3l.4-.3Z" style="fill: rgb(0, 0, 0);"/></g><g id="__id34_svyytcujhm"><path d="m121.6,126.7c-1.7.7-2.4,1.7-3,2.7,1-.9,2.2-1.8,3.5-2.7,0-.3,0-.4-.5,0Z" style="fill: rgb(0, 0, 0);"/></g><g id="__id35_svyytcujhm"><path d="m135.4,120c-1,.3-2,.7-3.1,1.1,1.1-.1,3.1-.6,3.1-1.1Z" style="fill: rgb(0, 0, 0);"/></g><g id="__id36_svyytcujhm"><path d="m117.2,131.6c0,0-.1.1-.2.2.7,0,.5-.1.2-.2Z" style="fill: rgb(0, 0, 0);"/></g><g id="__id37_svyytcujhm"><path d="m117.2,131.6c.7-.7,1-1.5,1.4-2.2-.9.7-1.6,1.5-2.2,2.2.3,0,.6,0,.8,0Z" style="fill: rgb(0, 0, 0);"/></g><g id="__id38_svyytcujhm"><path d="m144.5,96.9c.7,1.4-2,5.5-6.2,6.6-2.4,3.4,2.8,5.9,7.4,6-.3-.6-.7-1.1,1.9-4.4-1.6.2-8.4,4-6.6.8,3.8-4,3.8-2.3,6.4-3.3-3-.1,3.6-6.5.8-8.1l-3.1,3.8c-.4-.3.5-1.9-.7-1.4Z" style="fill: rgb(0, 0, 0);"/></g><g id="__id39_svyytcujhm"><path d="m139.3,114.3c-.4.4-.8.8-1.2,1.2,1.7-.9,3.2-1.3,6-1.9,1.8-2.4,1.9-3.2,1.7-3.7l-6.8,5,.3-.5Z" style="fill: rgb(0, 0, 0);"/></g><g id="__id40_svyytcujhm"><path d="m131.9,120.1c0-2.2,2.9-5.2-.2-5.2-3.9,3.1-2,3.2-4,5.6,6.4-5-1.3,2.1,4-.5-1.1,1.2-2.3,2.1-3.3,2.9,1.3-.7,2.6-1.3,3.9-1.8,0,0-.1,0-.2,0h0s0,0,0,0c-.4,0-.6,0-.2-.1,0,0,0,0,.1-.1,0-.2,0-.5,0-.7,2.1-1.1.6.1,0,.7,0,0,0,.2,0,.3,0,0,0,0,0,0l6-5.6c-1.5.8-3.2,2.2-6.2,4.6Z" style="fill: rgb(0, 0, 0);"/></g><g id="__id41_svyytcujhm"><path d="m93,134.5c.3,0,.3.1.4.2.4-.4.5-.7-.4-.2Z" style="fill: rgb(0, 0, 0);"/></g><g id="__id42_svyytcujhm"><path d="m96.3,133.8c-.4.5-.5,1.3-2.3,2.1-1.7.3-.4-.7-.7-1.2-.8,1-3,2.9.6,2l.4-.5c1.6-.5,3.5-.8,5.1-.9,1.5,0,2.6,0,2.4.2-1.6-.9-2.9-1.4-5.5-1.8Z" style="fill: rgb(0, 0, 0);"/></g><g id="__id43_svyytcujhm"><path d="m114.3,127.2l5.1-4.4-3.7.7.6.7c-3.4,1.8-2.1,2.3-2.1,3.1Z" style="fill: rgb(0, 0, 0);"/></g><g id="__id44_svyytcujhm"><path d="M147.3 109.9L147.7 111.8 149.1 107.4 147.3 109.9z" style="fill: rgb(0, 0, 0);"/></g><g id="__id45_svyytcujhm"><path d="M153.9 104.2L154.7 105.7 155.9 103.5 153.9 104.2z" style="fill: rgb(0, 0, 0);"/></g><g id="__id46_svyytcujhm"><path d="m595.8,92.1l1.9.8c-.8-.4-1.4-.7-1.9-.8Z" style="fill: rgb(0, 0, 0);"/></g><g id="__id47_svyytcujhm"><path d="m584.1,83.9l-.7.5c.8,0,1.2,0,.7-.5Z" style="fill: rgb(0, 0, 0);"/></g><g id="__id48_svyytcujhm"><path d="m336.1,21c2.8,1.4,5.9,3.6,5.5,1.8l-.9-1.7c-1.9.4-3.4.2-4.6-.1Z" style="fill: rgb(0, 0, 0);"/></g><g id="__id49_svyytcujhm"><path d="m477.5,36.6c-.2-.3-.4-.5-.6-.8-.9.3-1.7.6-2.4.9.9,0,1.9,0,3,0Z" style="fill: rgb(0, 0, 0);"/></g><g id="__id50_svyytcujhm"><path d="m482,30.7l3.1,2.5c-.6-.7-1.6-1.5-3.1-2.5Z" style="fill: rgb(0, 0, 0);"/></g><g id="__id51_svyytcujhm"><path d="m658.7,137.8h2.9c-2.8-2.2-2.1-.5-2.9,0Z" style="fill: rgb(0, 0, 0);"/></g><g id="__id52_svyytcujhm"><path d="m222.9,51.7c2.4-.6,4.1-1.2,5.6-1.9-2.9.5-5.7.3-5.6,1.9Z" style="fill: rgb(0, 0, 0);"/></g><g id="__id53_svyytcujhm"><path d="m580.7,104.1c1.2.4,1.8.4,2,0-1.2-.4-1.9-.6-2,0Z" style="fill: rgb(0, 0, 0);"/></g><g id="__id54_svyytcujhm"><path d="m234.5,46.6c-.4,0-.8.1-1.3.2-1.4,1-2.8,2.1-4.7,3,1.1-.2,2.2-.4,3.2-.9,1-.5,2-1.1,2.7-2.2Z" style="fill: rgb(0, 0, 0);"/></g><g id="__id55_svyytcujhm"><path d="m701.5,180.1c.1,0,.2-.1.3-.2-.3-.1-.3,0-.3.2Z" style="fill: rgb(0, 0, 0);"/></g><g id="__id56_svyytcujhm"><path d="m683.6,107.8c.5.7,1.1,1.8,1.7,2.9-.2-.6-.7-1.5-1.7-2.9Z" style="fill: rgb(0, 0, 0);"/></g><g id="__id57_svyytcujhm"><path d="m181.3,83c-1.3,1.2-.1.3,0,0h0Z" style="fill: rgb(0, 0, 0);"/></g><g id="__id58_svyytcujhm"><path d="m170.1,83.2c.2-.4.2-.8,0-1.1.1.4.1.8,0,1.1Z" style="fill: rgb(0, 0, 0);"/></g><g id="__id59_svyytcujhm"><path d="m246.1,29.4c0,0,0,0,.1,0-.6-.1-.5,0-.1,0Z" style="fill: rgb(0, 0, 0);"/></g><g id="__id60_svyytcujhm"><path d="m178.7,84.1c.7-.3,1.4-.6,2.1-1.1-.4.1-1,.4-2.1,1.1Z" style="fill: rgb(0, 0, 0);"/></g><g id="__id61_svyytcujhm"><path d="m179.5,84.5c-.5.3-.9.6-1.3.9,0,.4.3.4,1.3-.9Z" style="fill: rgb(0, 0, 0);"/></g><g id="__id62_svyytcujhm"><path d="m183.2,81.3c-.8.7-1.6,1.2-2.4,1.7.4-.1.5-.1.5,0,.4-.4,1-.9,1.9-1.6Z" style="fill: rgb(0, 0, 0);"/></g><g id="__id63_svyytcujhm"><path d="m656.2,196.6c-.1,0-.3,0-.4-.2-1.8.7-1,.6.4.2Z" style="fill: rgb(0, 0, 0);"/></g><g id="__id64_svyytcujhm"><path d="m384.2,5c0,0-.1,0-.2,0,0,0,.2,0,.3,0v-.2Z" style="fill: rgb(0, 0, 0);"/></g><g id="__id65_svyytcujhm"><path d="m391,4.6c-3.1,1.8-4.7,1.3-6.8.6.5,1.7,1.1,3.5,1.6,5.2,1.7-1.9,3.4-3.9,5.2-5.8Z" style="fill: rgb(0, 0, 0);"/></g><g id="__id66_svyytcujhm"><path d="m623.7,111.8c-.9-1.4-1.9-2.7-2.8-4,6.1,1.3,8.7,4.6,6.6.1-3.8,3.9-14.9-10.4-18.6-6.4-.6-.9-1.2-1.8-1.8-2.7.7.6,1,.4,1.7.9-3.3-5.6-5.9.6-11.7-4.5-1.9-1.9-3-3.6-1.2-3.1-1.9-.8-3.8-1.5-5.7-2.3-1.4-1.1-.5-1.6.9-.5l-7.8-4.8h.1c-1.6-.1-4.7-.7-6.2-1-1.5-1.9,1.3.1,1.2-.7l-5-1.6c-1-2.3,3.3-1.2,6.1.9-1-7.1-4.3-1.1-11.1-9.3l4.4,2c-.5-2.1-1.6-3.5-3.1-4.9-1.5-1.4-3.3-2.8-5.2-5,.3.8,2,3.2,2.9,5.3.9,2.1,1,3.7-1.6,2.8-1.1-1.2-2.7-2.4-5.8-3,1-1.7-1.7-2.8-4.9-4.6l1.5-2.1c-3.7-1.4-4.1-.1-6.7-.3-3.7-2.4-3.5-4.5-3.5-6.5-5.9-3.8,2.6,5.2-4.8,1.5-2.3-1.9-4.4-3.1-6.9-4.1-2.5-.9-5.2-1.7-8.7-2.6-3.2-2.7,1.4-1.1.4-2.4h-4.1c-.8-.3-.2-.8,0-1-1.5-.4-1.9.2-2.4.6-.5.4-1.2.7-3.5,0-1.2,1-2.9-1-5.2-3.2-2.3-2.2-5.1-4.7-8.5-4.5-1-1.3,1.3-1.1,1.3-2.2-8.3-1.4-7-1.4-14.2-1.5-1.5-1.3-3-2.6-4.6-3.8,3.1,3.3-2.7,3.4-7.6,3.4,1,1.4,1.9,2.6,2.5,3.3-2.4-.5-4.8-1-7.3-1.4-.7-.7.3-1.3,1.8-1.8-.5,0-1.1,0-1.5,0-2.1-1.8-.3-2.7,2-3.4.7.8,1.3,1.6,1.9,2.4,2.3-.8,4.5-1.7,4.7-3.2-.6,0-1.5,0-2.5-.3.6-.2,1-.4.9-.8-.1-.3-1.1-.1-2.4,0l-.6-3.3-.8.9c-2.8-1.7-5.7-3.4-8.6-5.1-1.9,0-3.8.3-5.7.5-1.9.2-3.8.5-5.9.6-1,0-2,.1-3.1.2-1.1,0-2.2,0-3.3,0-2.3,0-4.7-.4-7.5-.8,3.2-1.3,1.5-3.1,2.3-5.5,1.1,1.7,3.2,2,5.7,2.2,1.3.1,2.6.2,4,.4,1.4.2,2.8.5,4.1,1.1-2.8-1.2-1.8-2.1-.9-2.3-3.5-.4-7-.5-10.5-.8.8-1.9-1.7-2.1-4-3.6.4,2.2-1.6,2.3-4.3,1.9-2.7-.4-6-1.3-8.2-1.2,0-1.4,1.4-2.5,6.2-.9-4.7-4.3-8.2,2.7-12.9-1,1.2.2,1.8.6,2.5,0-1.6.3-4-.2-5.8-.9-1.8-.7-3-1.4-2.1-1.8l1.2.2c-2-.5-4.5-1.1-7.2-1.7-2.7-.5-5.6-.9-8.3-1.2-5.4-.4-10-.1-10.9,1.4,0-.5,1.7-3.9,2.3-4.5-5.4,3.1-10.7,6.2-15.9,9.5,1.6-2.8-2.6-10.2,4.4-11.1-1.9-.6-4.3-1.4-8.6-.7,1.3.5,2.9,4.5,1.1,4.6-4.7-3.7-3.3-2-9.3-5.3,2,.7-.6,5.2-3.7,4.9.5-.7,0-4.5,1.2-4.9-2.7,1.4-5.4,2.7-8.1,4.1,2-.8.5-3.8-1.3-5.1.8.9-6.9-.3-9,.2l3.4,1c-4.5-.3-6.7,1.2-8.9,2.9-2.2,1.7-4.3,3.4-8.6,3.5.5-.5,1.1-1.9,1-3.3,0-1.4-.9-2.7-3.2-2.8-1,1.2-3.1,4.1-5.9,7-1.4,1.5-2.9,3-4.5,4.2-1.6,1.3-3.4,2.3-5.2,3l-1.6-1.1c-1.9.7-3.7,1.4-5.6,2.2,1.5-2,4.6-5,8.1-8.1,3.5-2.9,7.3-5.9,10.1-7.5-3.4-.8-1.1-1.5-6.1-.9-1.9-1.1,2.6-2.1,4.1-2.3h-6c0,.1-3,.2-3,.2l-3,.2c.4,1.3-1.8,2.2-3.9,3.1-2.2.9-4.3,1.8-4,2.9,1-.4,2-.8,3.1-1.2l3.1-1.1c2.1-.7,4.1-1.5,6.2-2.1.2.7-.1,1.5-.8,2.4-.7.9-1.8,1.9-3.2,2.8-1.4.9-3,1.8-4.8,2.4-1.8.7-3.8,1.2-5.8,1.4-2.2-.7.8-5,.5-5.8-.5.5-2.4,1.3-4.2,1.8-1.9.6-3.7,1-4.2.7l3.2-2.1c-4.8-.1-6.8,4.8-12.7,3.5-1,.1-2.6-.4-3.9-.8-1.4-.3-2.5-.5-2.5.3,3.8,2.2,6.5,11.3,5.1,14-.3,0-2.8-.1-5.6-.4-2.8-.3-5.7-.4-7-.9-1.8-.7-1.1-2.4-.3-4.1.8-1.7,1.7-3.3.1-4,0,.7-1.3,2.1-1.9,2.6-2.1,0,.2-2.4-4-.9.1,2.8-8.5,2.6-1.3,2.8-1.9,1-3,1.3-4.3,1.4-.6,0-1.3.2-2.1.3-.8.2-1.7.5-2.9.9,1,.6.5,2.4-.7,4.3-.6,1-1.4,2-2.3,2.8-.9.9-1.8,1.7-2.6,2.3,0-.7-1.2-1.2-1.8-1.4-8,3-12.7,4-19.9,7.6-1-.2-4.8,1-3.9-.9-.8,1-1.3,2.3-3.4,3.6-5.4.3,4.7-3,0-3.7.3.8-.9,2-2.4,3.4-1.5,1.5-3.4,3.1-4.6,4.4,1.1.8,2.9-.2,4.8-1.7,1.8-1.5,3.8-3.4,5.2-4.7.8,1.5.3,3.7-1.2,6.3-1.5,2.6-3.9,5.5-6.9,8.3-5,4.3-3.6-.3-4.2.7-1.3.8-2.4,1.5-3.3,2.3-.9.7-1.6,1.5-2.1,2.2-1.1,1.4-1.8,2.6-2.4,3.8-1.2,2.3-2.3,4.4-7.1,6.4-4.5.7-2.7-3.3-4.4-4,3.9-3.8,7.5-3.8,10.4-5.9-1.4.6-2.9,1.1-4.3,1.8.9-1.6,3.6-4.1,5.6-4.7-1,0-2.6.9-4.5,2.1-2,1.2-4.2,2.9-6.7,4.6-4.9,3.5-10.3,7.7-14.6,10-.9,1.6-2.7,4.1-1.1,3.9l2.2-2.1c3.3-.4-3,5.4.5,3.7-2.4,3.5-4.7,7.8-9.8,10.7l-2.4-1.2c.5.5,3.8-1.2,4.6-2.8-1.2,2.4-8.9,3-8.9,7.1l4.2-1.2c-2.4,3.5-4.7,8.8-9.1,11.4,3.3.4.7-1,5.4-1.1-4.7-.7,10.2-8.2,3.9-7.8,5,.2,5.8-3,11.4-3.9-.6-.5-2.3-.1,1.2-2.5,0-.3.2-.8.3-1.1.1,0,.2,0,.3-.1,0,0-.2,0-.2,0,0-.2,0-.2,0,0-1,.4-1.9.5-2.5.4.5-2.8,5.8-7,7-9.1,2.2-1.3-.2,1.4,1.4,1.2l1.8-3.2c1.4,1.2,7.1-1.7,3.1,2.7l4.2-3.1c3.1-1.1,6.7-3.2,8.4-5.4,2.2-1.2,3.9-5.2,3-2.8,2-1.8,4-3.8,6.1-5.5l.3.3c1.7-1,3.3-2.3,5-3.6,1.6-1.3,3.3-2.6,5-3.8.9-.6,1.8-1.2,2.7-1.8.9-.5,1.9-1.1,2.9-1.5,2-.9,4.1-1.7,6.6-2,2.2-1.6,4.4-3.4,8.7-4.8l1.4,1.1c.7-.5,1.7-.9,2.8-1.3,1.1-.4,2.3-.7,3.4-1,2.2-.6,4.2-1.3,4.6-2.4,1.2.7,2.9.7,4.7.3,1.8-.4,3.8-1.1,5.9-1.9,2.1-.8,4.2-1.7,6.1-2.5,2-.7,3.8-1.3,5.3-1.6l-.3-2c2-.5,4-1.1,6-1.9,2-.8,4.2-1.6,6.7-2.6l-.7-1.7c1-.6,2.3-1,3.7-1.2,1.4-.3,3-.3,4.6-.4,1.6,0,3.3-.1,5.1-.2,1.8,0,3.5-.2,5.3-.5-.4.8-2.2.8-3.5.6,2.3.7,4.5.7,6.6.3,2.2-.3,4.3-1,6.5-1.7,2.1-.7,4.3-1.3,6.4-1.7,2.1-.4,4.2-.4,6.1.2,1.9-.8,3.3-.6,4.7-.3-.2,0-.3,0-.5.1.2,0,.5,0,.8,0,.9.3,1.8.6,2.7.9-.8-.4-1.6-.7-2.3-.9,1.5,0,3.7-.4,5.9-.9l1,1.9c.2,0,.3,0,.5,0,2.2.7,1.7-.9.6-2.4,1.1-.3,2.1-.7,2.9-1.2,1.8,3.1,5.9-1.1,8.2,2.3.8-.8,3.6-1,6.4-1.4,2.8-.4,5.6-1,6.3-2.7,0,.4.7.7-.5.7,2.5.5,4.9,1.1,7.3.3l.8,2.5c1.9-1,3.8-1.9,5.7-2.8,3.2,1.8,4.4,2.8.9,4.4,4.1-1.1,5.7-1.1,7.2-1.2,1.5,0,2.8-.2,6.4-1.1l-.6,1.5c2.4.3,6.6-1.2,7.8.3,1.2,1,3.5,1.8,6.3,2.6,2.9.7,6.4,1.6,10.2,2.4,7.5,1.8,16.1,4,22.3,7.3-.7-2.6.8-1.7,2.5-.5,1.7,1.2,3.8,2.7,4.6,1,.5,1.3,2.1,2.4-.3,2.7,3.5.5,5.9,1.8,8.1,2.7,2.2.9,4.2,1.6,7,.9.4,1.3-2,1-1.5,1.9.6,0,2.4-.2,2.9.7.4.9-1.3.5-2.5.6,1.7.6,3.1.8,4.2.8,1.2,0,2.1-.2,2.8-.6,1.5-.8,2.4-2.2,3.2-3.6,1.5,1.4,2.6,2.2,3.8,2.5,1.2.4,2.5.2,4.1-.2.8,1.5,2.4,3.3-2,1.9.6.3,1.7.9,3.1,1.6.7.3,1.5.7,2.3,1.1.8.4,1.6.8,2.4,1.2,3.3,1.5,6.4,2.6,7,1.4.5.9,3.2,1.6,3.9,1.6,2.6,1.2,3.9,2,5.3,2.7,1.4.7,2.7,1.4,5.3,2.5l-1.2-1.1c3.3-1.8,4.5,1.4,8.7,3.1l-.3.2c8.2,6.8,4.5,1.2,12.3,8.2l.4-1.9c1.4-1.6,3.2,0,5.2,2.3,2.1,2.3,4.5,5.1,7.5,5.9l-1.3-2c1.8.2,3.1,2.5,4.2,5.1,1.1,2.5,2.1,5.4,3.3,6.4.4.7-1.2,0-2.2-.4,6,6.5,2.2-1.6,7.9,1.2.3,1.8-3.1,2.2.4,4.6,1.2,1.9,12.8,2.9,16.3,8.3-.5-1.6-1-3.1,1.9-2.2,4,2.2,7.9,10.1,13.2,9.7.3.6.3.9.2,1.1,3.3,1.2,10,5.4,12.7,5.1-.3,1.8.7,3.3,2.4,4.7,1.7,1.4,4,2.6,6.3,3.7,4.5,2.3,8.8,4.3,6.9,6.7,2.9,2.1,5.8,4.2,8.7,6.2l-.6.3c5.2,4.5,8,4.8,10.8,5.2,1,1.3-.3,1-.6,1.2,7.1,7.2,8,7.5,16.4,10.5l-.6,2.1c1.2.3,3.6,3.2,6.7,6.5,3.1,3.4,7,7.3,11.5,9.5-.2.1-.6.3-1.4,0,.6.3,1.2.7,1.8,1.1.3.2.6.4.9.6.3.2.5.4.8.6.7.6,1.3,1.2,1.9,1.9,1.1,1.3,1.9,2.7,2.6,3.7.2.3.3.5.5.8.2.2.4.5.5.6.3.3.6.6,1.2.9,1.1.5,3.1,1.1,6.8,1.9,2.1,1,4.5,2.3,7.1,3.7-1.9-2-.3-1.7,2.1-.8,2.3.9,5.6,2.4,5.4,1.4,1.8,1.3,2.5,2.6,1.9,2.9-.5.4-2.2,0-4-1.3.1,0,.3-.1.4-.2-2.4-.8-3.3-.8-3.5-.6-.2.3.2.8.8,1.4,1.1,1.2,2.7,2.6-1,1.2.6.5,1.1.9,1.6,1.4l.2.2h0c0,0,0,0-.1,0h-.6c0,0-1.1-.3-1.1-.3-5.1-.8-10.5-1.9-15.1-2.7-2.3-.4-4.4-.7-6.3-1-.9-.1-1.9-.3-2.7-.3h-1.3c0-.1-1.2-.2-1.2-.2-.5,0-1,0-1.5,0l2,3c-2.1-.1-4.1-.2-6.2-.3-1.6-.7-2.2-2.3,2.3-2.1-2.3-1.7-7.4,1.4-7.5,2-4.3-.6-3.5-1.4-1.9-2.1,1.6-.7,4-1.3,2.6-1.3l-3.6.2.8.3c-2.9,1.3-3.1,2.5-8.5,2.5-3.4-.5-1.8-1.7-3.1-1.8,0-.2-.5-.3-2,0-2.6,0-5.2,0-7.8.2,1.1.7,2.2,1.4,3.3,2.1-3.4,1.4-7.3.4-3.6,2.7-2.6-1.7-9.2-1.6-15.8-1l.7,12.7c7.3,0,14.7-.4,16.4.3,4.8-1.7,9.5-1.7,15.3-1.5-1.4-.5-2.3-3.1,2.7-2.8-1.8,5.4,9.2,2.3,13.3,6.1-3.6-2.5,14.3-.7,8.6-4.3,4.2.4.3,2,3.4,3.3,5-1.1,10.5-.7,16.3-.2,1.4.1,2.9.3,4.4.4.8,0,1.4.1,2.3.2.9,0,1.6,0,2.9,0,4.6,0,9.4-.9,13.3-3,0-.3-1-.4-1.5-.7-.5-.3-.6-.8.6-2,3.2-.4,6.5-1.5,9.3-3.7.8-1.6.1-2.9,0-4.1-.2-1.3,0-2.7,1.2-5.5-.6.8-1.5,1.8-1.7-.4.4-3.8-.7-7.9-2.5-11.8-.4-1-.9-2-1.4-2.9l-1-2.1c-.7-1.4-1.4-2.7-2.1-4.1-2.9-5.4-6.1-10.7-9.2-16.1-6.2-10.7-12-21.7-15-34,.4,3.6-.8,1.7-2-.5.5,1.6-1.5.8-2.2,1.5l-2.5-10.3c-1-.1-1.9-1-2.7-2.3l-11.4,5.9c1.8,2.9,3.2,7.3,5.2,7.2l-1.8-2.7c4.6,2.6,3.3-8.4,7-9.5,0,0,0,0,0,0l-8.8,4.5c5.1,2.7,1.6,13.6,9.6,18.2.1,1.9-1.8-.7-2.1.5,2.4,1,3.9,3,5.3,7.3l-.6-.3c6.4,10.9,7.5,16.5,13.3,29.5l1.2-1.8c1.2,2.8,1,3.7,1.3,5.1,4.2,1.7-3.9-7.6.4-6.3-.7,2.7,1.8,7.4,4.2,12.1.6,1.2,1.2,2.3,1.7,3.4.1.3.3.6.4.8l.2.4v.2c.2.3.3.6.3.9.2,1.1,0,1.9-1.2,2.3.3.9.8.8,1.4.6.5-.1,1.1-.4,1.4.9-.4.2-.8.3-1.2.4.6.3,1.2.6,1.8.9-.1.8-.8,1.3-1.5,1.4-.7,0-1.5,0-2-.4.3-.2,0-.9,0-1.2-.9.4-1.2,1.2-1.7,1.9-.4.7-1,1.2-1.4,1.1.7,0,1.4,0,2.1,0-.9.9-2.3,1.4-3.8,1.6-.6.2-5.2.2-8.5.2-7.1,0-14.1.3-20.3,1.5l.9.9c-9.5,1.7-7.6-1-18-.2l.4-.2c-2.1.9-4.9,1.4-7.7,1.3,2.6-1.1-4.9-2-1.5-3.2-10.3,1.8-5.1,1.4-11.8,4.8l-1.6-1.5c-2.3,1.4-2.5,2.1-7.7,2.5,4.3-1.3-3.3-2.2,1.4-3.9-4.3-1.3-7.8-1-10.7-.5l.8,15c2.1-.6,3.9-1.2,5.5-1.5,1.7-.2,3.2,0,4.8,1.4,2.3-2.3,0-2.6-2.7-2.6-2.6,0-5.4.6-4.1,0-1.2-.5-.3-1.4,1.4-2.1,1.7-.7,4.1-1.2,5.8-1.2,3.5-.2,6.2,4.8,14.7,4.3-.9,0-.9.3-1.7.3,3.2.9,6.2-1.7,10.2,0,2.2-2.6,5.1,0,5.7-3.1-2.6.2-5.3.5-7.9.8,2.2-.5,4.4-1.7,6.9-2.5,2.5-.8,5.5-1.3,9.2-.3-.6.6-2.8,1.4-4.3,1.9,1.1.5,2.1.3,3.2.2.5,0,1.1-.1,1.6-.1.3,0,.5,0,.8,0,.3,0,.5.1.9.3-.3.8-.9,1.2-2,1.4-1,.2-2.3.3-3.8.3-2.9,0-6.3,0-8.7,1.3,2.3,1.3,9-2.3,6.6,1.1,1.7-2.2,3.8-2,6.2-1.7.9.2,3.2.4,5.3.4,2.1,0,4.3-.2,6.1-.9,0,.6.1,1.3.2,1.9.7-.1,1.7-.3,2.8-.5,1.1-.2,2.4-.4,3.7-.2-1,.7-2.2,1.5-3.5,2.2,1.8-.4,3.5-.5,5.6-.2,2,.2,4.2.7,6.5,1.2,1.2.3,2.3.5,3.5.8,1.2.3,2.4.6,3.6.8,2.4.5,4.6.8,6.4.7-9.1-1.1-10.7-1.9-11.3-2.7-.3-.4-.3-.8-.8-1.3-.5-.5-1.5-1-3.4-1.5,3.9-.3,6.7.1,9.5.7,2.7.6,5.3,1.7,8.3,2.8,3,1.1,6.3,2.3,10.4,3.4,4.2,1.1,9.4,2.1,15.3,2.7-1.4,0-5.6-.9-8.7-1.8-3.2-.9-5.4-1.8-3.9-2,5.5,1.1,13.6,3,19.7,4.9,4.1.5,5.3.5,5.2.2,0-.2-1.6-.7-3.4-1.3-1.8-.6-4-1.2-5.5-1.7-1.5-.5-2.3-1-1.7-1.2,4.5,1.5,6.4,1.9,7,1.7-1-.8-2.9-1.9-4.5-3-.4-.3-.8-.5-1.3-.8-.6-.4-1.2-.7-1.8-1.1-1.2-.7-2.3-1.5-3.3-2.2l5.5,2.2c-2.1-2.2-4.1-3.8-5.9-4.9-1.8-1.1-3.4-1.9-5-2.6-1.6-.7-3-1.3-4.5-2.2-1.4-.9-2.8-2-4.3-3.8,3.4,1.7,7,3.6,10.7,5.6l-7.1-5.2,6.2,2.4c-5.1-3.3-7.7-5.1-9.7-6.8-2-1.7-3.5-3.3-6.1-5.9-.5.5-2.3.1-4.4-.8-2.2-.9-4.8-2.4-7.1-4.4-1.6-2.9,4.5,1.5-2.8-4.4.8.3,1.6.5,2.4.8.8.3,1.7.7,2.4,1.2,1.5.9,2.8,2.1,3.1,3.5,1.3.3,3.6,1.5,5,1.8-1-1.7-3.6-4.1-6.2-6.2-.3-.3-.7-.5-1-.8-.3-.2-.6-.5-.9-.7-.6-.5-1.2-.9-1.7-1.3-1.1-.8-2.1-1.5-2.7-2.1,1,.9,2.1,2,2.4,2.6-4.7-2.8-9.1-5.3-13.1-7.6-.9-1.7.8-1,2.6-.2-2.3-1.7-4.5-2.4-7.6-4.7,1.9-.4,2.8-1.8,8.2,1.8l-6-4-1.5-1-.4-.2h-.3c0-.1-.5-.4-.5-.4l-2-1.1c0-.9-2.3-4.3-1-4-3.2-3.8-11.1-5.3-15.3-10.3-.5,0-1.2-.2-2.4-.9-2.2-2-4.1-4.3-6.3-6.4-2.2-2.1-4.7-4-8.2-5.4l-1.5-4.7c-4.8-3,2.1,6.2-5.9,1.2-5.8-3.3-.5-3.4-1.9-5.4-1.7-.4-4.2-1-6.6-2.1-2.4-1.1-4.9-2.8-6.6-5.5,1.9.8,3,2,4.6,3Zm-57.8-38.9c1.3.4,4.3.8,4.5,2.3-2.5,1-2.9-.5-4.5-2.3Zm-96.6-43.5c1.2-.3,2.5.6,3.9,1.9-1.2-.3-2.6-.9-3.9-1.9Zm-273.4,40.1c0,0,0,0,0-.2,2.8-1.1,1.8-.7,0,.2Zm-5.3,3c-.3.6-.1.8.2.8,0-.6,1.1-1.5,2.4-2.3-.6-.1-1.5,0-2.7,1.5Zm445.9,111.3l1.2.5c-2.7.7-2,.1-1.2-.5Z" style="fill: rgb(0, 0, 0);"/></g><g id="__id67_svyytcujhm"><path d="m481.4,31.4c.2.4.2.8.1,1.2.6,0,.8-.4-.1-1.2Z" style="fill: rgb(0, 0, 0);"/></g><g id="__id68_svyytcujhm"><path d="m658.2,137.8c0,0,.1,0,.1.2.2,0,.3,0,.4-.1h-.5Z" style="fill: rgb(0, 0, 0);"/></g><g id="__id69_svyytcujhm"><path d="m267.3,13.9c1.3,0,2.1,0,2.7.3,0-.5-.7-.7-2.7-.3Z" style="fill: rgb(0, 0, 0);"/></g><g id="__id70_svyytcujhm"><path d="m167.2,95.5l2.7-2.9c-1.4,1.3-2.2,1.4-3.2,1.8.4.3,1.4.3.4,1.1Z" style="fill: rgb(0, 0, 0);"/></g><g id="__id71_svyytcujhm"><path d="m132.8,107.7c-.3.5-1,.8-1.3,1.3l.7.6c2-1.5,2.9-3.1.6-1.9Z" style="fill: rgb(0, 0, 0);"/></g><g id="__id72_svyytcujhm"><path d="m160.3,92.9c-1.3-1.1-2.8.9-4.8,2.9.1-.1.2-.2.4-.3.8,2.3,2.6-.2,4.4-2.6Z" style="fill: rgb(0, 0, 0);"/></g><g id="__id73_svyytcujhm"><path d="m155.1,96.3c-.6.6-1.3,1.2-2,1.7.3.9.9-.5,2-1.7Z" style="fill: rgb(0, 0, 0);"/></g><g id="__id74_svyytcujhm"><path d="m185.1,78.2c-1.3.5.6,2.1-.3,2.1.1,2.5,5.2-7.3.3-2.1Z" style="fill: rgb(0, 0, 0);"/></g><g id="__id75_svyytcujhm"><path d="M155.2 90.2L157.3 91.1 157.4 88.8 155.2 90.2z" style="fill: rgb(0, 0, 0);"/></g><g id="__id76_svyytcujhm"><path d="m173.1,77.5l-3.8,2.3c.3.2,0,.7-.5,1.3,2.2-1.7,4.7-3.2,4.3-3.6Z" style="fill: rgb(0, 0, 0);"/></g><g id="__id77_svyytcujhm"><path d="m168.8,81.1c-1.1.9-2.1,1.8-2.5,2.5.6-.5,1.8-1.6,2.5-2.5Z" style="fill: rgb(0, 0, 0);"/></g><g id="__id78_svyytcujhm"><path d="M159.5 85.8L160.8 85.3 163.3 83.5 159.5 85.8z" style="fill: rgb(0, 0, 0);"/></g><g id="__id79_svyytcujhm"><path d="m211.5,49.7c1.2-1.1,2.5-2,3.8-3,0-.8-1.3-.5-2.7.6-.8,1-2.1,2.2-1.1,2.4Z" style="fill: rgb(0, 0, 0);"/></g><g id="__id80_svyytcujhm"><path d="m196.3,53.3c1.3-.4,1.7,0,2.6,0l-1.3-2.1-1.3,2.1Z" style="fill: rgb(0, 0, 0);"/></g><g id="__id81_svyytcujhm"><path d="m207.9,44.9c0-.9,5-5.5-.2-2,0,.9-3.9,4,.2,2Z" style="fill: rgb(0, 0, 0);"/></g><g id="__id82_svyytcujhm"><path d="M276.4 18.5L275.2 18.8 276.4 22.7 276.4 18.5z" style="fill: rgb(0, 0, 0);"/></g><g id="__id83_svyytcujhm"><path d="m340,.1c-6-.8-1.3,2.6-6.7,1.5-1.3,1,4.4.9,3,1.7,3.5-1.1,5.4-.6,3.7-3.2Z" style="fill: rgb(0, 0, 0);"/></g><g id="__id84_svyytcujhm"><path d="m336.3,3.4c-.6.2-1.2.4-1.8.7,1-.3,1.5-.5,1.8-.7Z" style="fill: rgb(0, 0, 0);"/></g><g id="__id85_svyytcujhm"><path d="M664.9 110.2L665.8 113.8 666 111.1 664.9 110.2z" style="fill: rgb(0, 0, 0);"/></g><g id="__id86_svyytcujhm"><path d="m670.8,115.2l-1.9,1.9,3.1.9c-.5-.7-1.4-2-1.1-2.9Z" style="fill: rgb(0, 0, 0);"/></g><g id="__id87_svyytcujhm"><path d="m559.7,63.1l-.6.4c.1.9.9,1.4,2.3,2.4l-1.8-2.8Z" style="fill: rgb(0, 0, 0);"/></g><g id="__id88_svyytcujhm"><path d="M601.1 92.8L600.4 92.2 600.4 95.1 601.1 92.8z" style="fill: rgb(0, 0, 0);"/></g><g id="__id89_svyytcujhm"><path d="m637,115.8c-1.3-1.1-3.3-2-4.6-3.1,3.3,2,3.1,5.7,4.6,3.1Z" style="fill: rgb(0, 0, 0);"/></g></svg>