<svg xmlns="http://www.w3.org/2000/svg" xmlns:xlink="http://www.w3.org/1999/xlink" data-name="Layer 29" preserveAspectRatio="xMidYMid meet" version="1.0" viewBox="-0.6 -0.4 661.7 412.7" zoomAndPan="magnify" style="fill: rgb(0, 0, 0);" original_string_length="2427" width="484.13292098944055px" height="302.0345866595755px"><g id="__id88_sa9dweol5"><rect height="379.76" rx="51.19" width="634.52" x="26.62" y="32.52" style="fill: rgb(211, 91, 140);"/></g><g id="__id89_sa9dweol5"><rect height="379.76" rx="51.19" width="634.52" x="16.31" y="22.99" style="fill: rgb(251, 223, 239);"/></g><g id="__id90_sa9dweol5"><path d="M199.07,324.77a7.41,7.41,0,0,0-5.42-6.71,9.33,9.33,0,0,0-8.57,2.23,10.64,10.64,0,0,0,.75,16.41,16,16,0,0,0,5.49,2.47,9.07,9.07,0,0,0,4.89.3c9-2.57,5.6-12,2.12-17.54" transform="translate(-148.98 -287.12)" style="fill: rgb(211, 91, 140);"/></g><g id="__id91_sa9dweol5"><path d="M171,306.09c-1.47-3.27-2.65-6.8-2-10.43a10.53,10.53,0,0,1,7.6-8.3,10.42,10.42,0,0,1,8.7,2.18,21.54,21.54,0,0,1,5.07,6.78c2.1,3.82,4.08,8.16,2.56,12.48C187.47,324.45,175.16,315.25,171,306.09Z" transform="translate(-148.98 -287.12)" style="fill: rgb(247, 176, 205);"/></g><g id="__id92_sa9dweol5"><path d="M200.74,300.54c2.14-2.86,4.66-5.61,8.14-6.82a10.54,10.54,0,0,1,11,2.62,10.37,10.37,0,0,1,2.31,8.66,21.69,21.69,0,0,1-3.46,7.73c-2.33,3.68-5.16,7.52-9.68,8.29C192.66,323.83,194.73,308.6,200.74,300.54Z" transform="translate(-148.98 -287.12)" style="fill: rgb(247, 176, 205);"/></g><g id="__id93_sa9dweol5"><path d="M220.2,321.36c3.58,0,7.28.4,10.33,2.48a10.54,10.54,0,0,1,4.41,10.36,10.36,10.36,0,0,1-5.59,7,21.55,21.55,0,0,1-8.26,1.82c-4.35.32-9.12.33-12.43-2.84C196.68,328.73,210.15,321.33,220.2,321.36Z" transform="translate(-148.98 -287.12)" style="fill: rgb(247, 176, 205);"/></g><g id="__id94_sa9dweol5"><path d="M212,353.36c1.3,3.34,2.29,6.93,1.47,10.52a10.53,10.53,0,0,1-8,7.89,10.41,10.41,0,0,1-8.57-2.64,21.67,21.67,0,0,1-4.71-7c-1.89-3.93-3.64-8.37-1.9-12.61C196.55,334.15,208.36,344,212,353.36Z" transform="translate(-148.98 -287.12)" style="fill: rgb(247, 176, 205);"/></g><g id="__id95_sa9dweol5"><path d="M181.63,357.73c-2.28,2.75-4.94,5.37-8.49,6.39a10.55,10.55,0,0,1-10.79-3.19,10.43,10.43,0,0,1-1.85-8.78,21.57,21.57,0,0,1,3.87-7.53c2.51-3.56,5.54-7.24,10.09-7.77C190.93,334.91,188.06,350,181.63,357.73Z" transform="translate(-148.98 -287.12)" style="fill: rgb(247, 176, 205);"/></g><g id="__id96_sa9dweol5"><path d="M163.3,335.92c-3.57-.2-7.25-.79-10.18-3a10.52,10.52,0,0,1-3.86-10.57,10.35,10.35,0,0,1,6-6.7,21.53,21.53,0,0,1,8.35-1.38c4.36-.1,9.12.14,12.26,3.48C187.18,329.8,173.33,336.48,163.3,335.92Z" transform="translate(-148.98 -287.12)" style="fill: rgb(247, 176, 205);"/></g></svg>