<svg xmlns="http://www.w3.org/2000/svg" xmlns:xlink="http://www.w3.org/1999/xlink" preserveAspectRatio="xMidYMid meet" version="1.0" viewBox="-0.0 -0.1 126.9 30.8" zoomAndPan="magnify" style="fill: rgb(0, 0, 0);" original_string_length="2458" width="262.94317597100996px" height="64.06251923657334px"><g stroke="#1d1d1b" stroke-linecap="round" stroke-miterlimit="10" style="fill: none;"><path d="M0.5,1.89c20.98-0.34,21.02,2.36,42,2.03c20.98-0.34,20.94-3.04,41.92-3.38s21.03,2.36,42.01,2.03" style="fill: inherit;"/><path d="M12.06 2.02L12.2 10.51" style="fill: inherit;"/><path d="M29.22 3.65L29.43 16.5" style="fill: inherit;"/><path d="M46.36 3.87L46.5 12.61" style="fill: inherit;"/><path d="M63.47 2.38L63.7 16.98" style="fill: inherit;"/><path d="M80.39 0.71L80.72 20.83" style="fill: inherit;"/><path d="M97.5 0.92L97.69 12.61" style="fill: inherit;"/><path d="M114.66 2.53L114.77 8.85" style="fill: inherit;"/></g><g id="__id109_sfxif6rmbi" stroke="#1d1d1b" stroke-linecap="round" stroke-miterlimit="10" style="fill: rgb(240, 194, 255);"><circle cx="12.27" cy="15.05" r="4.54" style="fill: inherit;"/><circle cx="46.58" cy="17.25" r="4.54" style="fill: inherit;"/><circle cx="80.8" cy="25.58" r="4.54" style="fill: inherit;"/><circle cx="114.84" cy="13.63" r="4.54" style="fill: inherit;"/></g><g id="__id110_sfxif6rmbi" stroke="#1d1d1b" stroke-linecap="round" stroke-miterlimit="10" style="fill: rgb(255, 230, 153);"><path d="M30.45,17.1l1.01,1.96c0.17,0.32,0.48,0.55,0.84,0.59l2.19,0.28c0.91,0.12,1.29,1.23,0.64,1.88l-1.55,1.56 c-0.26,0.26-0.37,0.63-0.3,0.98l0.41,2.17c0.17,0.9-0.77,1.61-1.59,1.19l-1.97-0.99c-0.32-0.16-0.71-0.16-1.03,0.02l-1.93,1.06 c-0.8,0.44-1.76-0.23-1.62-1.14l0.34-2.18c0.06-0.36-0.07-0.72-0.33-0.97l-1.6-1.51c-0.67-0.63-0.32-1.75,0.58-1.9l2.18-0.35 c0.36-0.06,0.67-0.29,0.82-0.62l0.94-1.99C28.86,16.3,30.03,16.28,30.45,17.1z" style="fill: inherit;"/><path d="M64.73,17.73l1.01,1.96c0.17,0.32,0.48,0.55,0.84,0.59l2.19,0.28c0.91,0.12,1.29,1.23,0.64,1.88l-1.55,1.56 c-0.26,0.26-0.37,0.63-0.3,0.98l0.41,2.17c0.17,0.9-0.77,1.61-1.59,1.19l-1.97-0.99c-0.32-0.16-0.71-0.16-1.03,0.02l-1.93,1.06 c-0.8,0.44-1.76-0.23-1.62-1.14l0.34-2.18c0.06-0.36-0.07-0.72-0.33-0.97l-1.6-1.51c-0.67-0.63-0.32-1.75,0.58-1.9l2.18-0.35 c0.36-0.06,0.67-0.29,0.82-0.62l0.94-1.99C63.13,16.94,64.31,16.92,64.73,17.73z" style="fill: inherit;"/><path d="M98.72,13.61l1.01,1.96c0.17,0.32,0.48,0.55,0.84,0.59l2.19,0.28c0.91,0.12,1.29,1.23,0.64,1.88l-1.55,1.56 c-0.26,0.26-0.37,0.63-0.3,0.98l0.41,2.17c0.17,0.9-0.77,1.61-1.59,1.19l-1.97-0.99c-0.32-0.16-0.71-0.16-1.03,0.02l-1.93,1.06 c-0.8,0.44-1.76-0.23-1.62-1.14l0.34-2.18c0.06-0.36-0.07-0.72-0.33-0.97l-1.6-1.51c-0.67-0.63-0.32-1.75,0.58-1.9l2.18-0.35 c0.36-0.06,0.67-0.29,0.82-0.62l0.94-1.99C97.13,12.81,98.3,12.79,98.72,13.61z" style="fill: inherit;"/></g></svg>