<svg preserveAspectRatio="xMidYMid meet" version="1.0" viewBox="0.0 0.0 500.0 367.3" xmlns="http://www.w3.org/2000/svg" xmlns:xlink="http://www.w3.org/1999/xlink" zoomAndPan="magnify" style="fill: rgb(0, 0, 0);" original_string_length="3827" width="560.667397810673px" height="411.835688573658px"><g data-name="Layer 2"><g data-name="Layer 1"><g id="__id118_srlsygsd6q"><path d="M51.35,35.33,17.84,245.82a10.38,10.38,0,0,0,11.73,11.87c6.25-.84,13.52-.24,19.65,4.57,14,11,20.5,23,25,23s15-3,20.5-3,19-5,21.5-1,3,8,18,10.5,29.51-2.5,32-3.5,14,11,24.5,11,20.5,3.5,28.5,0,8.5-10,19-5.5,13.5,10,23,7,22-1.5,25.5,2,27,.5,39.51,6,7,3.5,21,7,15,4.5,17.5,8c1.72,2.42,8.69,5.79,12.84,7.64a10.36,10.36,0,0,0,6.33.7c8.58-1.77,31.71-6.27,33.33-3.83s10.46,3.82,14,4.31a10.08,10.08,0,0,0,2.85,0l12.59-1.75a10.34,10.34,0,0,0,8.78-8.57L492,100.77a10.35,10.35,0,0,0-10.39-12,22.19,22.19,0,0,1-6.88-1c-11.51-3.5-16.51-12.5-22.51-10s-18.5-13-33-7.5c-12.74,4.83-18.54,1.17-19.75.21-.25-.2-.52-.38-.79-.56l-11.24-7.19a10.7,10.7,0,0,1-1.09-.82c-.95-.79-3.84-2.64-10.13-2.64a120.51,120.51,0,0,1-13.87-.86,10.17,10.17,0,0,0-2.34,0l-10.87,1.16a10.32,10.32,0,0,1-3.79-.29l-24.95-6.68a9.75,9.75,0,0,0-2.47-.35c-3.53-.07-13.27-.1-15.72,1.53-3,2-5.5-1.5-7.5-1.5-1,0-4.74-1.21-8.09-2.37a10.4,10.4,0,0,0-8.84.82,7.16,7.16,0,0,1-4.57,1c-3.61-.36-15.35-.2-21.56-.08a10.39,10.39,0,0,1-6.9-2.47c-4.87-4.14-14.21-11.82-16-11.45-2.5.5-20.5-5.5-24-3-2.53,1.81-8.74,4.66-12,6.1a10.3,10.3,0,0,1-4.21.9h-8.8a10.66,10.66,0,0,1-2-.2l-6.86-1.38A10.08,10.08,0,0,1,167.74,39c-1.35-.77-4.23-1.74-9.51-.75-8,1.5-23-2.5-29-3.5s-9.5-.5-15-1-16-11.5-23.5-10-25,3.5-27.5,3l-.53-.09A10.31,10.31,0,0,0,51.35,35.33Z" style="fill: rgb(250, 245, 239);"/></g><g id="__id119_srlsygsd6q"><path d="M63.41,181.12q-18.3-6.26-33.55-10.83l-12,75.53a10.38,10.38,0,0,0,11.73,11.87c6.25-.84,13.52-.24,19.65,4.57,14,11,20.5,23,25,23s15-3,20.5-3,19-5,21.5-1,3,8,18,10.5,29.51-2.5,32-3.5,14,11,24.5,11,20.5,3.5,28.5,0,8.5-10,19-5.5,13.5,10,23,7,22-1.5,25.5,2,27,.5,39.51,6,7,3.5,21,7,15,4.5,17.5,8c1.72,2.42,8.69,5.79,12.84,7.64a10.36,10.36,0,0,0,6.33.7c8.58-1.77,31.71-6.27,33.33-3.83s10.46,3.82,14,4.31a10.08,10.08,0,0,0,2.85,0l12.59-1.75a10.34,10.34,0,0,0,8.78-8.57L492,100.77a10.35,10.35,0,0,0-10.39-12,22.19,22.19,0,0,1-6.88-1A33.65,33.65,0,0,1,467,84.23C412.13,151.2,284.81,256.85,63.41,181.12Z" style="fill: rgb(243, 234, 227);"/></g><g id="__id120_srlsygsd6q"><path d="M145.4,57.71l24.44-17.8a10.33,10.33,0,0,1-2-.84l-5.13-1.24a22.52,22.52,0,0,0-4.51.42c-8,1.5-23-2.5-29-3.5s-9.5-.5-15-1c-3.15-.29-8-4-12.88-6.88L50.46,63.93l-4.14,3L35,138.16l82-59.71Z" style="fill: rgb(243, 234, 227);"/></g><g id="__id121_srlsygsd6q"><path d="M458.65,303l12.66-76.69-90.46,65.91-30.51,22.22L348.22,316c13.06,3.3,14.08,4.34,16.52,7.75,1.72,2.42,8.69,5.79,12.84,7.64a10.36,10.36,0,0,0,6.33.7c8.58-1.77,31.71-6.27,33.33-3.83.56.83,2,1.55,3.82,2.15l31-22.61Z" style="fill: rgb(237, 228, 220);"/></g><g id="__id122_srlsygsd6q"><path d="M146.98 36.3L125.13 52.22 100.07 70.48 26.25 124.25 26.24 113.79 26.24 112.48 25.42 112.38 16.91 111.33 19.83 101.92 9.12 100.56 10.6 93.19 10.84 92.02 9.92 91.68 0 87.95 16.48 75.95 41.53 57.7 120.72 0 121.06 8.87 122.61 9.54 124.33 10.3 129.96 12.76 130.41 20.94 139.19 25.53 138.68 29.83 138.41 32.02 138.16 34.18 146.98 36.3z" style="fill: rgb(73, 49, 194);"/></g><g id="__id123_srlsygsd6q"><path d="M500 279.31L478.15 295.23 453.09 313.49 379.28 367.27 379.26 356.8 379.26 355.49 378.44 355.39 369.93 354.34 372.85 344.94 362.14 343.57 363.62 336.21 363.86 335.03 362.94 334.69 353.02 330.97 369.5 318.96 394.56 300.71 473.75 243.01 474.08 251.88 475.63 252.56 477.35 253.32 482.98 255.78 483.43 263.96 492.21 268.54 491.7 272.84 491.43 275.03 491.18 277.19 500 279.31z" style="fill: rgb(73, 49, 194);"/></g></g></g></svg>