<!--?xml version="1.0" standalone="no"?-->
              <svg id="sw-js-blob-svg" viewBox="0 0 100 100" xmlns="http://www.w3.org/2000/svg" version="1.1">
                    <defs> 
                        <linearGradient id="sw-gradient" x1="0" x2="1" y1="1" y2="0">
                            <stop id="stop1" stop-color="rgba(55, 78.018, 248, 1)" offset="0%"></stop>
                            <stop id="stop2" stop-color="rgba(183.618, 31, 251, 1)" offset="100%"></stop>
                        </linearGradient>
                    </defs>
                <path fill="url(#sw-gradient)" d="M20.5,-24.6C27.9,-18.3,36,-13,38.8,-5.6C41.6,1.8,39.1,11.5,34.1,19.3C29.1,27.2,21.7,33.2,13.9,34.5C6.1,35.7,-2.1,32,-9,28C-15.9,24.1,-21.5,19.9,-27.7,13.8C-33.8,7.7,-40.5,-0.3,-39.6,-7.2C-38.7,-14.1,-30.2,-19.9,-22.3,-26.2C-14.4,-32.5,-7.2,-39.2,-0.3,-38.8C6.6,-38.5,13.2,-31,20.5,-24.6Z" width="100%" height="100%" transform="translate(50 50)" stroke-width="0" style="transition: all 0.3s ease 0s;" stroke="url(#sw-gradient)"></path>
              </svg>